<?xml version="1.0" encoding="UTF-8"?><svg id="Capa_1" xmlns="http://www.w3.org/2000/svg" viewBox="0 0 54 52"><defs><style>.cls-1{fill:#fff;}</style></defs><path class="cls-1" d="M27,10.53c5.15,0,5.76,.02,7.79,.11,2.1,.1,4.27,.58,5.8,2.11,1.55,1.55,2.01,3.69,2.11,5.8,.09,2.03,.11,2.64,.11,7.79s-.02,5.76-.11,7.79c-.09,2.09-.58,4.28-2.11,5.8-1.55,1.55-3.69,2.01-5.8,2.11-2.03,.09-2.64,.11-7.79,.11s-5.76-.02-7.79-.11c-2.07-.09-4.29-.6-5.8-2.11-1.54-1.54-2.01-3.7-2.11-5.8-.09-2.03-.11-2.64-.11-7.79s.02-5.76,.11-7.79c.09-2.08,.59-4.28,2.11-5.8,1.54-1.54,3.69-2.01,5.8-2.11,2.03-.09,2.64-.11,7.79-.11m0-3.47c-5.24,0-5.89,.02-7.95,.12-2.98,.14-5.94,.97-8.1,3.12-2.16,2.16-2.98,5.12-3.12,8.1-.09,2.06-.12,2.71-.12,7.95s.02,5.89,.12,7.95c.14,2.98,.97,5.95,3.12,8.1,2.16,2.16,5.12,2.98,8.1,3.12,2.06,.09,2.71,.12,7.95,.12s5.89-.02,7.95-.12c2.98-.14,5.94-.97,8.1-3.12s2.98-5.12,3.12-8.1c.09-2.06,.12-2.71,.12-7.95s-.02-5.89-.12-7.95c-.14-2.98-.97-5.94-3.12-8.1-2.16-2.16-5.12-2.99-8.1-3.12-2.06-.09-2.71-.12-7.95-.12Z"/><path class="cls-1" d="M27,16.44c-5.47,0-9.9,4.43-9.9,9.9s4.43,9.9,9.9,9.9,9.9-4.43,9.9-9.9-4.43-9.9-9.9-9.9Zm0,16.33c-3.55,0-6.43-2.88-6.43-6.43s2.88-6.43,6.43-6.43,6.43,2.88,6.43,6.43-2.88,6.43-6.43,6.43Z"/><circle class="cls-1" cx="37.29" cy="16.05" r="2.31"/></svg>