<?xml version="1.0" encoding="UTF-8"?><svg id="Capa_1" xmlns="http://www.w3.org/2000/svg" viewBox="0 0 54 52"><defs><style>.cls-1{fill:#fff;fill-rule:evenodd;}</style></defs><g id="Artboard"><path class="cls-1" d="M27,10.13c-8.76,0-15.87,7.11-15.87,15.87s7.11,15.87,15.87,15.87,15.87-7.11,15.87-15.87-7.11-15.87-15.87-15.87Zm7.36,10.79c-.24,2.51-1.27,8.6-1.8,11.41-.22,1.19-.66,1.59-1.08,1.63-.92,.08-1.62-.61-2.51-1.19-1.4-.92-2.19-1.49-3.54-2.38-1.57-1.03-.55-1.6,.34-2.53,.23-.24,4.29-3.94,4.37-4.27,0-.04,.02-.2-.07-.28s-.23-.05-.33-.03c-.14,.03-2.37,1.51-6.69,4.42-.63,.44-1.21,.65-1.72,.64-.57-.01-1.66-.32-2.47-.58-.99-.32-1.78-.49-1.72-1.04,.04-.29,.43-.58,1.18-.88,4.63-2.02,7.71-3.34,9.25-3.99,4.41-1.83,5.32-2.15,5.92-2.16,.75-.01,.93,.61,.87,1.24Z"/></g></svg>