<?xml version="1.0" encoding="UTF-8"?><svg id="Capa_1" xmlns="http://www.w3.org/2000/svg" viewBox="0 0 54 52"><defs><style>.cls-1{fill:#fff;fill-rule:evenodd;}</style></defs><g id="WA_Logo"><path class="cls-1" d="M38.02,14.92c-2.97-2.97-6.92-4.61-11.13-4.61-8.67,0-15.73,7.06-15.73,15.73,0,2.77,.72,5.48,2.1,7.87l-2.23,8.15,8.34-2.19c2.3,1.25,4.89,1.91,7.52,1.92h0c8.67,0,15.73-7.06,15.73-15.73,0-4.2-1.63-8.16-4.6-11.13Zm-11.13,24.2h0c-2.35,0-4.65-.63-6.65-1.82l-.48-.28-4.95,1.3,1.32-4.83-.31-.49c-1.31-2.08-2-4.49-2-6.96,0-7.21,5.87-13.07,13.08-13.07,3.49,0,6.78,1.36,9.24,3.83,2.47,2.47,3.83,5.76,3.83,9.25,0,7.21-5.87,13.08-13.08,13.08Zm7.17-9.79c-.39-.2-2.33-1.15-2.69-1.28-.36-.13-.62-.2-.88,.2s-1.01,1.28-1.24,1.54c-.23,.26-.46,.29-.85,.1-.39-.2-1.66-.61-3.16-1.95-1.17-1.04-1.96-2.33-2.19-2.72s-.02-.61,.17-.8c.18-.18,.39-.46,.59-.69,.2-.23,.26-.39,.4-.65,.13-.26,.07-.49-.03-.69-.1-.2-.88-2.13-1.21-2.92-.32-.77-.64-.66-.88-.67-.23-.01-.49-.01-.75-.01s-.69,.1-1.05,.49c-.36,.39-1.38,1.35-1.38,3.28s1.41,3.8,1.6,4.07,2.77,4.23,6.71,5.94c.94,.4,1.67,.65,2.24,.83,.94,.3,1.8,.26,2.48,.16,.76-.11,2.33-.95,2.65-1.87s.33-1.71,.23-1.87c-.1-.17-.36-.26-.75-.46Z"/></g></svg>