<?xml version="1.0" encoding="UTF-8"?><svg id="Capa_1" xmlns="http://www.w3.org/2000/svg" viewBox="0 0 54 52"><defs><style>.cls-1{fill:#fff;}</style></defs><path class="cls-1" d="M48.63,15.06c-.52-1.95-2.05-3.5-3.99-4.02-3.52-.95-17.64-.95-17.64-.95,0,0-14.12,0-17.64,.95-1.94,.52-3.47,2.06-3.99,4.02-.94,3.54-.94,10.94-.94,10.94,0,0,0,7.39,.94,10.94,.52,1.95,2.05,3.5,3.99,4.02,3.52,.95,17.64,.95,17.64,.95,0,0,14.12,0,17.64-.95,1.94-.52,3.47-2.06,3.99-4.02,.94-3.54,.94-10.94,.94-10.94,0,0,0-7.39-.94-10.94Zm-26.24,17.65v-13.43l11.8,6.71-11.8,6.71Z"/></svg>