<?xml version="1.0" encoding="utf-8"?>
<!-- Generator: Adobe Illustrator 27.0.0, SVG Export Plug-In . SVG Version: 6.00 Build 0)  -->
<svg version="1.1" id="Capa_1" xmlns="http://www.w3.org/2000/svg" xmlns:xlink="http://www.w3.org/1999/xlink" x="0px" y="0px"
	 viewBox="0 0 190 193" style="enable-background:new 0 0 190 193;" xml:space="preserve">
<style type="text/css">
	.st0{fill:#FFFFFF;}
	.st1{fill:#FEF8E4;}
</style>
<path class="st0" d="M-186.1,145.9l0.9,1.5l-14.2,3.3l-0.9-1.4l8.9-11.7l0.9,1.4l-7.6,9.7l0.1,0.1L-186.1,145.9z M-191,148.3
	l-3.7-5.8l1.2-0.8l3.7,5.8L-191,148.3z"/>
<path class="st0" d="M-192.3,135.4l-11.1,9l-0.6-1.5l9.1-7.2l-0.1-0.1l-11.3,1.9l-0.7-1.7l9.1-7.2l-0.1-0.1l-11.3,2l-0.6-1.5l14-2.2
	l0.7,1.6l-8.8,7.2l0,0.1l11.1-1.7L-192.3,135.4z"/>
<path class="st0" d="M-197.1,122.9l0.4,1.7l-14.4-1.3l-0.4-1.6l12-8.4l0.4,1.7l-10.1,7l0,0.1L-197.1,122.9z M-202.4,123.6l-1.7-6.7
	l1.4-0.4l1.7,6.7L-202.4,123.6z"/>
<path class="st0" d="M-199.7,110.9l-13.5,1.5l-0.4-4.6c-0.1-1.1,0-2,0.3-2.7c0.3-0.7,0.7-1.3,1.3-1.7c0.6-0.4,1.3-0.6,2.1-0.7
	c0.8-0.1,1.5,0,2.2,0.3c0.6,0.3,1.2,0.7,1.6,1.3c0.4,0.6,0.7,1.5,0.7,2.5l0.3,3.7l-1.5,0.2l-0.3-3.7c-0.1-0.7-0.2-1.3-0.5-1.7
	c-0.2-0.4-0.6-0.7-1-0.9c-0.4-0.2-0.9-0.2-1.4-0.2c-0.5,0.1-1,0.2-1.4,0.5c-0.4,0.2-0.7,0.6-0.9,1.1c-0.2,0.5-0.2,1.1-0.2,1.8
	l0.2,2.9l12.1-1.3L-199.7,110.9z M-206.4,105.2l5.8-4l0.2,1.9l-5.8,4L-206.4,105.2z"/>
<path class="st0" d="M-200.2,94.6l-0.3,4.2l-13.6-0.7l0.3-4.4c0.1-1.3,0.4-2.4,1.1-3.4c0.6-0.9,1.4-1.6,2.5-2.1
	c1-0.5,2.3-0.6,3.7-0.6c1.4,0.1,2.6,0.4,3.6,0.9c1,0.6,1.7,1.3,2.2,2.3C-200.3,92-200.1,93.2-200.2,94.6z M-201.9,97l0.2-2.5
	c0.1-1.1-0.1-2.1-0.4-2.8c-0.4-0.8-1-1.3-1.7-1.7c-0.8-0.4-1.7-0.6-2.8-0.7c-1.1-0.1-2.1,0.1-2.9,0.4c-0.8,0.3-1.5,0.8-1.9,1.5
	c-0.5,0.7-0.8,1.6-0.8,2.6l-0.2,2.6L-201.9,97z"/>
<path class="st0" d="M-196,72.5l-14-1.4l0.6-1.6l11.3,1.3l0.1-0.1l-9.2-6.7l0.7-1.7l11.3,1.2l0.1-0.1l-9.2-6.6l0.6-1.6l11.2,8.3
	l-0.6,1.6l-11.2-1l0,0.1l8.9,6.7L-196,72.5z"/>
<path class="st0" d="M-199.8,49.2l11.6,6.8l-0.9,1.4l-11.6-6.8L-199.8,49.2z"/>
<path class="st0" d="M-187.9,32.8l10.4,8.6l-1,1.2l-12.9-0.9l-0.1,0.1l8.2,6.7l-1.1,1.3l-10.4-8.6l1-1.2l13,0.9l0.1-0.1l-8.2-6.7
	L-187.9,32.8z"/>
<path class="st0" d="M-176.5,22.6l8.9,10.1l-1.2,1.1l-12.6-2.9l-0.1,0.1l7,7.9l-1.2,1.1l-8.9-10.1l1.2-1.1l12.6,2.9l0.1-0.1l-7-8
	L-176.5,22.6z"/>
<path class="st0" d="M-168.1,16.8l7.2,11.4l-1.4,0.9l-7.2-11.4L-168.1,16.8z"/>
<path class="st0" d="M-150.1,7.6l5.3,12.5l-1.5,0.7l-11-6.7l-0.1,0.1l4.1,9.8l-1.5,0.7l-5.3-12.5l1.5-0.7l11,6.7l0.1-0.1l-4.2-9.8
	L-150.1,7.6z"/>
<path class="st0" d="M-135.9,7.9c-0.2-0.4-0.5-0.7-0.8-1c-0.3-0.3-0.7-0.5-1-0.7c-0.4-0.2-0.8-0.2-1.2-0.3c-0.4,0-0.9,0-1.4,0.2
	c-0.8,0.2-1.4,0.6-2,1.2c-0.5,0.6-0.9,1.3-1.1,2.2s-0.1,1.9,0.1,3c0.3,1.1,0.7,2.1,1.3,2.7c0.6,0.7,1.2,1.1,2,1.4
	c0.8,0.2,1.5,0.2,2.4,0c0.8-0.2,1.4-0.5,1.9-1c0.5-0.5,0.8-1.1,1-1.7c0.2-0.7,0.2-1.4,0-2.2l0.5,0l-4,1.1l-0.3-1.4l5-1.4l0.3,1.4
	c0.3,1.1,0.3,2.1,0,3c-0.3,0.9-0.7,1.7-1.4,2.4c-0.7,0.7-1.6,1.1-2.6,1.4c-1.2,0.3-2.3,0.3-3.3,0c-1-0.3-1.9-0.9-2.6-1.8
	c-0.7-0.9-1.3-2-1.6-3.4c-0.3-1-0.3-2-0.3-2.9c0.1-0.9,0.3-1.7,0.7-2.5c0.4-0.7,0.9-1.3,1.5-1.8c0.6-0.5,1.4-0.9,2.2-1.1
	c0.7-0.2,1.4-0.3,2-0.2c0.7,0,1.3,0.2,1.8,0.4c0.6,0.2,1.1,0.6,1.5,1c0.4,0.4,0.8,1,1.1,1.6L-135.9,7.9z"/>
<path class="st0" d="M-116,15.2l-1.7-0.1l6-13.4l1.7,0.1l4,13.9l-1.7-0.1l-3.2-11.7l-0.1,0L-116,15.2z M-115,9.9l6.9,0.3l-0.1,1.5
	l-6.9-0.3L-115,9.9z"/>
<path class="st0" d="M-93.2,8.7c0-0.5-0.1-0.9-0.3-1.3c-0.1-0.4-0.4-0.8-0.6-1.1C-94.4,6-94.7,5.7-95,5.5c-0.4-0.2-0.8-0.4-1.3-0.5
	c-0.8-0.2-1.5-0.1-2.3,0.2c-0.7,0.3-1.4,0.8-2,1.5c-0.6,0.7-1,1.7-1.2,2.8c-0.3,1.2-0.3,2.2-0.1,3.1c0.2,0.9,0.6,1.6,1.1,2.1
	c0.6,0.5,1.2,0.9,2.1,1.1c0.8,0.2,1.5,0.1,2.1-0.1c0.7-0.2,1.2-0.6,1.7-1.1c0.5-0.5,0.8-1.2,1-2l0.5,0.2l-4-0.8l0.3-1.4l5,1.1
	l-0.3,1.4c-0.3,1.1-0.7,2-1.4,2.7c-0.6,0.7-1.4,1.2-2.4,1.5c-0.9,0.3-1.9,0.3-2.9,0.1c-1.2-0.2-2.1-0.7-2.9-1.5
	c-0.8-0.7-1.3-1.7-1.5-2.8c-0.3-1.1-0.2-2.4,0.1-3.8c0.2-1.1,0.6-2,1.1-2.8c0.5-0.8,1-1.4,1.7-1.9s1.4-0.8,2.2-1
	c0.8-0.2,1.6-0.2,2.4,0c0.7,0.1,1.3,0.4,1.9,0.7c0.6,0.3,1,0.7,1.4,1.2c0.4,0.5,0.7,1,0.9,1.6c0.2,0.6,0.3,1.2,0.3,1.9L-93.2,8.7z"
	/>
<path class="st0" d="M-91,19.2l5.1-12.8l7.6,2.9l-0.6,1.4l-6.1-2.3l-1.7,4.3l5.7,2.2l-0.6,1.4l-5.7-2.2l-1.7,4.3l6.2,2.4l-0.6,1.4
	L-91,19.2z"/>
<path class="st0" d="M-63.8,17.2l-7,11.9l-1.4-0.8l-0.8-13l-0.1-0.1l-5.5,9.3l-1.4-0.8l7-11.9l1.4,0.8l0.8,13l0.1,0.1l5.5-9.3
	L-63.8,17.2z"/>
<path class="st0" d="M-54.8,29.4l-1.3-1c0.2-0.4,0.4-0.9,0.4-1.3c0-0.4,0-0.9-0.1-1.3c-0.1-0.4-0.3-0.8-0.5-1.2
	c-0.2-0.4-0.5-0.7-0.9-1c-0.6-0.5-1.3-0.8-2.1-0.9c-0.8-0.1-1.6,0.1-2.4,0.4c-0.8,0.4-1.6,1-2.4,2c-0.8,0.9-1.3,1.8-1.5,2.7
	c-0.2,0.9-0.2,1.7,0,2.4c0.2,0.7,0.7,1.4,1.3,1.9c0.3,0.3,0.7,0.5,1.1,0.7c0.4,0.2,0.8,0.3,1.2,0.3c0.4,0,0.8,0,1.3-0.2
	c0.4-0.1,0.8-0.3,1.2-0.7l1.3,1c-0.5,0.5-1.1,0.8-1.7,1c-0.6,0.2-1.2,0.3-1.8,0.3c-0.6,0-1.2-0.1-1.8-0.4c-0.6-0.2-1.1-0.6-1.7-1
	c-0.9-0.7-1.5-1.6-1.8-2.6c-0.3-1-0.3-2.1-0.1-3.2c0.3-1.1,0.9-2.3,1.8-3.4c0.9-1.1,1.9-1.9,3-2.4c1.1-0.5,2.1-0.7,3.2-0.6
	c1.1,0.1,2,0.6,2.9,1.3c0.5,0.4,1,0.9,1.3,1.4c0.3,0.5,0.6,1.1,0.7,1.7c0.1,0.6,0.1,1.2,0,1.9C-54.2,28.2-54.4,28.8-54.8,29.4z"/>
<path class="st0" d="M-49.7,28.8l1.2,1.4l-2.3,7.1l0.1,0.1l7.3-1.5l1.2,1.4l-9.3,1.7l-4.2,3.8l-1.1-1.2l4.2-3.8L-49.7,28.8z"/>
<path class="st0" d="M-31.6,77.2l-1.4,0.4l-1.4-5.8l1.4-0.4L-31.6,77.2z"/>
<path class="st0" d="M-29.2,119.7c0.7,0.1,1.3-0.2,1.7-0.6c0.5-0.5,0.8-1.1,1-1.9c0.1-0.6,0.2-1.1,0.1-1.6c-0.1-0.5-0.3-0.9-0.5-1.2
	c-0.3-0.3-0.6-0.5-1-0.6c-0.4-0.1-0.7-0.1-1,0.1c-0.3,0.1-0.6,0.3-0.8,0.5c-0.2,0.2-0.4,0.5-0.6,0.8c-0.2,0.3-0.3,0.5-0.4,0.8
	l-0.7,1.3c-0.2,0.3-0.4,0.7-0.6,1.1c-0.3,0.4-0.6,0.8-0.9,1.1c-0.4,0.3-0.8,0.6-1.3,0.8c-0.5,0.2-1,0.2-1.7,0.1
	c-0.7-0.2-1.3-0.5-1.8-1c-0.5-0.5-0.8-1.1-1-1.9c-0.2-0.8-0.1-1.7,0.1-2.7c0.2-1,0.6-1.8,1-2.4c0.5-0.6,1-1.1,1.7-1.4
	c0.6-0.3,1.3-0.4,2.1-0.3l-0.4,1.7c-0.5-0.1-1,0-1.4,0.2c-0.4,0.2-0.7,0.6-1,1c-0.3,0.4-0.5,0.9-0.6,1.4c-0.1,0.6-0.2,1.2-0.1,1.7
	c0.1,0.5,0.3,1,0.6,1.3c0.3,0.4,0.7,0.6,1.2,0.7c0.4,0.1,0.8,0,1.2-0.1c0.3-0.2,0.6-0.5,0.9-0.8c0.3-0.4,0.5-0.8,0.8-1.2l0.8-1.5
	c0.5-1,1.2-1.7,1.8-2.2c0.7-0.5,1.5-0.6,2.4-0.5c0.7,0.2,1.3,0.5,1.8,1c0.5,0.5,0.8,1.2,0.9,1.9c0.2,0.8,0.1,1.6-0.1,2.4
	c-0.2,0.9-0.5,1.6-1,2.2c-0.5,0.6-1,1-1.6,1.3c-0.6,0.3-1.3,0.4-1.9,0.2L-29.2,119.7z"/>
<path class="st0" d="M-30,132.6l-12.6-4.8l0.6-1.5l12.6,4.8L-30,132.6z"/>
<path class="st0" d="M-39.5,150.5l-11.6-6.8l0.8-1.4l13-1.1l0.1-0.1l-9.1-5.3l0.9-1.4l11.6,6.8l-0.8,1.4l-13,1.1l-0.1,0.1l9.2,5.3
	L-39.5,150.5z"/>
<path class="st0" d="M-51.9,159.7l1.1-1.3c0.4,0.2,0.9,0.4,1.3,0.4c0.4,0,0.8,0,1.3-0.1c0.4-0.1,0.8-0.3,1.2-0.5s0.7-0.5,1-0.9
	c0.5-0.6,0.9-1.4,1-2.1c0.1-0.8,0-1.6-0.4-2.4c-0.4-0.8-1-1.6-1.9-2.3c-0.9-0.7-1.8-1.2-2.7-1.4c-0.9-0.2-1.7-0.2-2.4,0.1
	c-0.7,0.3-1.4,0.7-1.9,1.4c-0.3,0.4-0.5,0.7-0.7,1.1c-0.2,0.4-0.3,0.8-0.3,1.2c0,0.4,0,0.8,0.1,1.3c0.1,0.4,0.3,0.8,0.6,1.2
	l-1.1,1.3c-0.5-0.5-0.8-1.1-1-1.7c-0.2-0.6-0.3-1.2-0.3-1.8c0-0.6,0.2-1.2,0.4-1.8c0.2-0.6,0.6-1.2,1-1.7c0.7-0.9,1.6-1.5,2.6-1.9
	c1-0.4,2.1-0.4,3.2-0.1c1.1,0.3,2.2,0.8,3.3,1.7c1.1,0.9,1.9,1.9,2.3,2.9c0.5,1.1,0.6,2.1,0.5,3.2c-0.1,1.1-0.6,2-1.3,3
	c-0.4,0.5-0.9,1-1.5,1.3c-0.5,0.4-1.1,0.6-1.7,0.7c-0.6,0.1-1.2,0.2-1.9,0.1C-50.7,160.3-51.3,160-51.9,159.7z"/>
<path class="st0" d="M-61.7,156.1l8.9,10.1l-6.2,5.5l-1-1.1l5-4.4l-3-3.4l-4.6,4.1l-1-1.1l4.6-4.1l-3-3.4l-5,4.5l-1-1.1L-61.7,156.1
	z"/>
<path class="st0" d="M-82.9,171.3l0.5,1.1l-2.2,6.4c-0.3,0.7-0.5,1.4-0.6,1.9c-0.1,0.5-0.2,1-0.2,1.4c0,0.4,0.1,0.8,0.2,1.2
	c0.2,0.4,0.5,0.8,0.8,1c0.3,0.2,0.7,0.3,1.2,0.4s0.9-0.1,1.3-0.3c0.5-0.2,0.9-0.5,1.1-0.9c0.3-0.4,0.4-0.8,0.5-1.2
	c0-0.4,0-0.9-0.2-1.4l1.4-0.6c0.3,0.7,0.4,1.4,0.3,2.1c-0.1,0.7-0.4,1.3-0.8,1.9c-0.5,0.6-1,1-1.8,1.3c-0.7,0.3-1.4,0.5-2.1,0.4
	c-0.7-0.1-1.3-0.3-1.9-0.6c-0.5-0.4-1-0.9-1.2-1.5c-0.2-0.5-0.3-0.9-0.3-1.5c0-0.5,0.1-1.1,0.2-1.8c0.2-0.7,0.5-1.6,0.9-2.7l1.5-4.2
	l0-0.1l-5.8,2.6l-0.6-1.3L-82.9,171.3z"/>
<path class="st0" d="M-99.2,177.2c1-0.3,1.9-0.2,2.7,0.1c0.8,0.3,1.5,1,2.1,1.9c0.6,0.9,1.1,2.1,1.4,3.5c0.4,1.4,0.5,2.7,0.4,3.8
	c-0.1,1.1-0.4,2-1,2.7c-0.6,0.7-1.3,1.2-2.3,1.5c-1,0.3-1.9,0.2-2.7-0.1c-0.8-0.3-1.5-1-2.1-1.9c-0.6-0.9-1.1-2.1-1.4-3.5
	c-0.4-1.4-0.5-2.7-0.4-3.8c0.1-1.1,0.4-2,1-2.7C-100.9,177.9-100.1,177.5-99.2,177.2z M-98.8,178.6c-1,0.3-1.6,0.9-1.9,2
	c-0.3,1.1-0.2,2.5,0.2,4.2c0.3,1.1,0.6,2.1,1.1,2.8c0.4,0.7,0.9,1.3,1.5,1.6c0.6,0.3,1.2,0.4,1.8,0.2c1-0.3,1.6-0.9,1.9-2
	c0.3-1.1,0.2-2.5-0.2-4.2c-0.3-1.1-0.6-2.1-1.1-2.8c-0.4-0.7-0.9-1.2-1.5-1.5C-97.6,178.5-98.2,178.4-98.8,178.6z"/>
<path class="st0" d="M-107.6,179.2l0.1,1.2l-4.1,5.4c-0.5,0.6-0.9,1.2-1.2,1.6c-0.3,0.5-0.5,0.9-0.7,1.3c-0.1,0.4-0.2,0.8-0.2,1.2
	c0,0.5,0.2,0.9,0.4,1.2c0.3,0.3,0.6,0.6,1,0.7c0.4,0.1,0.9,0.2,1.3,0.1c0.5-0.1,1-0.2,1.3-0.5c0.4-0.3,0.6-0.6,0.8-1
	c0.2-0.4,0.2-0.9,0.2-1.4l1.6-0.2c0.1,0.8-0.1,1.5-0.4,2.2c-0.3,0.6-0.8,1.2-1.4,1.6c-0.6,0.4-1.3,0.7-2.1,0.7
	c-0.8,0.1-1.5,0-2.2-0.3c-0.6-0.3-1.2-0.7-1.6-1.2c-0.4-0.5-0.6-1.1-0.7-1.8c0-0.5,0-1,0.1-1.5c0.1-0.5,0.4-1.1,0.8-1.7
	c0.4-0.6,0.9-1.4,1.6-2.3l2.8-3.6l0-0.1l-6.3,0.7l-0.1-1.5L-107.6,179.2z"/>
<path class="st0" d="M-120.5,180.2l-0.1,1.2l-4.8,4.7c-0.6,0.6-1,1-1.4,1.4c-0.4,0.4-0.7,0.8-0.8,1.2c-0.2,0.4-0.3,0.8-0.3,1.2
	c0,0.5,0.1,0.9,0.3,1.3c0.2,0.4,0.5,0.6,0.9,0.9c0.4,0.2,0.8,0.3,1.3,0.4c0.5,0,1-0.1,1.4-0.3c0.4-0.2,0.7-0.5,1-0.9
	c0.2-0.4,0.4-0.8,0.4-1.3l1.6,0.1c-0.1,0.8-0.3,1.5-0.7,2.1c-0.4,0.6-0.9,1-1.6,1.3c-0.7,0.3-1.4,0.4-2.2,0.4
	c-0.8,0-1.5-0.2-2.1-0.6c-0.6-0.4-1-0.8-1.3-1.4c-0.3-0.6-0.4-1.2-0.4-1.9c0-0.5,0.2-1,0.4-1.5c0.2-0.5,0.6-1,1-1.5
	c0.5-0.6,1.1-1.2,2-2l3.3-3.1l0-0.1l-6.3-0.3l0.1-1.5L-120.5,180.2z"/>
<path class="st0" d="M-166.7,173.5l0.8-1.3l5.1,3l-0.8,1.3L-166.7,173.5z"/>
<image style="overflow:visible;" width="200" height="204" xlink:href="../../../../../Downloads/breadcrumb-sub-2.png"  transform="matrix(0.8896 0 0 0.8896 -205.0976 -212.3636)">
</image>
<g>
	<path class="st1" d="M58.8,17.9c2.5,4.3,1.2,8.3-2.9,10.7l-2.9,1.7c-0.4,0.2-0.9,0.1-1.2-0.3l-7-12.2c-0.2-0.4-0.1-0.9,0.3-1.1
		l2.9-1.7C52.2,12.6,56.3,13.6,58.8,17.9z M57.4,18.7c-2.1-3.7-5.2-4.5-8.7-2.5l-2.3,1.3l6.5,11.3l2.3-1.3
		C58.6,25.5,59.5,22.4,57.4,18.7z"/>
	<path class="st1" d="M58.3,10c-0.2-0.4,0-0.9,0.4-1c0.4-0.2,0.9,0,1,0.4c0.2,0.4,0,0.9-0.4,1S58.4,10.4,58.3,10z M61.5,13.5
		l4.1,9.5c0.2,0.4,0,0.9-0.4,1s-0.8,0-1-0.4l-4.1-9.5c-0.2-0.4,0-0.9,0.4-1C60.9,12.9,61.3,13.1,61.5,13.5z"/>
	<path class="st1" d="M72,10.8c0.2,0.2,0.3,0.3,0.4,0.5c0.1,0.4-0.1,0.7-0.4,0.8c-0.3,0.1-0.5,0-0.9-0.3c-0.6-0.5-1.6-0.8-2.8-0.4
		c-1.4,0.5-2,1.5-1.7,2.5c0.3,0.8,1,1.2,2.5,1.1l1.5-0.1c2.1-0.2,3.7,0.2,4.2,1.9c0.7,2.1-0.9,3.9-3.2,4.6c-1.8,0.6-3.6,0.3-4.4-0.7
		c-0.1-0.1-0.4-0.3-0.5-0.6c-0.1-0.4,0-0.7,0.4-0.9c0.3-0.1,0.6,0,0.8,0.3c0.8,0.9,2.1,1,3.3,0.6c1.5-0.5,2.6-1.5,2.2-2.8
		c-0.3-1-1.3-1.2-2.5-1.1l-1.9,0.1c-2.1,0.1-3.4-0.7-3.8-2c-0.6-1.8,0.6-3.6,2.7-4.3C69.5,9.7,71,10,72,10.8z"/>
	<path class="st1" d="M86.7,11.7c0.1,0.6-0.2,0.9-0.8,1l-8.6,1.6c0.7,2.7,3,3.6,5,3.2c1.1-0.2,2-0.7,2.6-1.5
		c0.2-0.3,0.4-0.4,0.6-0.5c0.4-0.1,0.6,0.2,0.7,0.5c0,0.2,0,0.4-0.3,0.8c-0.8,1-2,1.7-3.4,1.9c-2.8,0.5-6.1-0.8-6.8-4.8
		c-0.7-3.9,2-6.4,4.5-6.9C82.6,6.6,86,8,86.7,11.7z M77,13.1l8.1-1.5c-0.7-2.7-3-3.5-4.8-3.2C78.6,8.7,76.7,10.3,77,13.1z"/>
	<path class="st1" d="M99.5,10.5l0.1,6.2c0,0.4-0.3,0.8-0.7,0.8c-0.4,0-0.8-0.4-0.8-0.8l-0.1-6.2C97.9,7.9,96.3,7,94.6,7
		c-2.4,0.1-3.6,2-3.8,3.5l0.2,6.3c0,0.4-0.3,0.8-0.7,0.8c-0.4,0-0.8-0.4-0.8-0.8L89.1,6.6c0-0.4,0.3-0.8,0.7-0.8
		c0.4,0,0.8,0.3,0.8,0.8l0,2c0.1-0.7,1.5-2.9,4.2-2.9C97,5.6,99.4,6.8,99.5,10.5z M96,2.6c0.7,0,1.1-0.3,1.2-0.7
		c0-0.1,0.2-0.3,0.4-0.3c0.2,0,0.5,0.2,0.4,0.5C97.9,3.2,97,3.8,96,3.9c-1.7,0-2.3-1.5-3.7-1.5c-0.7,0-1.1,0.4-1.2,0.9
		c0,0.2-0.2,0.3-0.4,0.3c-0.3,0-0.5-0.3-0.4-0.5c0.2-1.2,1.2-1.8,2.1-1.8C94.2,1.2,94.8,2.6,96,2.6z"/>
	<path class="st1" d="M112.2,9.4l0.2-1.6c0.1-0.4,0.5-0.7,0.9-0.7c0.4,0.1,0.7,0.5,0.7,0.9l-1.4,10.2c-0.1,0.4-0.5,0.7-0.9,0.7
		c-0.4-0.1-0.7-0.5-0.7-0.9l0.3-1.9c-0.9,1.5-2.6,2.4-4.5,2.1c-2.5-0.3-5.3-2.7-4.7-6.7c0.5-4,3.8-5.5,6.3-5.2
		C110.1,6.6,111.6,7.7,112.2,9.4z M111.8,12.9c0.4-3.2-1.6-4.9-3.5-5.1c-1.9-0.3-4.4,0.9-4.8,4c-0.4,3.1,1.6,4.9,3.5,5.2
		C109,17.2,111.4,16,111.8,12.9z"/>
	<path class="st1" d="M129.3,7.9L125,21.8c-0.1,0.4-0.6,0.6-1,0.5c-0.4-0.1-0.6-0.6-0.5-1l0.6-1.8c-1.1,1.4-3,1.9-4.8,1.3
		c-2.4-0.7-4.7-3.5-3.6-7.4c1.2-3.8,4.7-4.8,7.1-4.1c1.7,0.5,3,1.8,3.3,3.6l0.5-1.6c0-0.1,0-0.1,0.1-0.2l1.2-3.9
		c0.1-0.4,0.6-0.7,1-0.5C129.2,7,129.4,7.5,129.3,7.9z M125.1,16.5c0.9-3.1-0.7-5.1-2.6-5.6c-1.8-0.6-4.4,0.2-5.4,3.2
		c-0.9,3,0.8,5.1,2.6,5.7C121.7,20.2,124.2,19.5,125.1,16.5z"/>
	<path class="st1" d="M139.3,23c-1.8,3.6-5.5,3.9-7.9,2.8c-2.3-1.1-4.3-4.3-2.5-7.9c1.8-3.6,5.5-3.9,7.8-2.8
		C139.1,16.2,141.1,19.4,139.3,23z M130.3,18.5c-1.4,2.8,0,5.2,1.8,6.1c1.8,0.9,4.5,0.6,5.9-2.3c1.4-2.8,0-5.2-1.8-6
		C134.4,15.4,131.7,15.7,130.3,18.5z"/>
	<path class="st1" d="M149.7,23.7c-0.3,0.4-0.7,0.4-1.3,0c-1.8-1.2-4.1-0.6-5.2,0.5l-3.5,5.2c-0.2,0.4-0.7,0.5-1.1,0.2
		c-0.4-0.2-0.4-0.7-0.2-1.1l5.7-8.5c0.2-0.4,0.7-0.5,1.1-0.2c0.4,0.2,0.4,0.7,0.2,1.1l-1.1,1.7c0.5-0.5,2.9-1.5,5-0.1
		C149.9,22.9,150,23.4,149.7,23.7z"/>
	<path class="st1" d="M153,32.5c0.3-0.4,0.9-0.4,1.3-0.1c0.4,0.3,0.4,0.9,0.1,1.3c-0.4,0.4-1,0.4-1.3,0.1
		C152.7,33.5,152.6,32.9,153,32.5z"/>
	<path class="st1" d="M169.3,48.6c-3.9,3-8.1,2.3-11-1.5l-2-2.7c-0.3-0.4-0.2-0.9,0.2-1.2l11.1-8.5c0.4-0.3,0.9-0.2,1.2,0.2l2,2.7
		C173.6,41.4,173.2,45.6,169.3,48.6z M168.3,47.4c3.4-2.6,3.8-5.8,1.4-9l-1.6-2.1l-10.3,7.9l1.6,2.1C161.8,49.5,165,50,168.3,47.4z"
		/>
	<path class="st1" d="M174.3,61.4c-0.5,0.3-0.9,0.1-1.2-0.5l-4.1-7.7c-2.4,1.5-2.5,3.9-1.5,5.7c0.5,0.9,1.3,1.7,2.2,2
		c0.3,0.2,0.5,0.3,0.6,0.4c0.2,0.3,0,0.7-0.2,0.8c-0.2,0.1-0.4,0.1-0.8,0c-1.2-0.4-2.2-1.4-2.9-2.7c-1.3-2.5-1.1-6.1,2.5-8
		c3.5-1.9,6.7,0,7.9,2.2C177.9,56.1,177.6,59.7,174.3,61.4z M170,52.7l3.9,7.3c2.3-1.4,2.4-3.9,1.6-5.5
		C174.7,52.9,172.5,51.6,170,52.7z"/>
	<path class="st1" d="M181.3,69.3c-0.2,0.2-0.3,0.3-0.5,0.4c-0.4,0.1-0.7-0.1-0.8-0.4c-0.1-0.3,0-0.5,0.3-0.9
		c0.5-0.7,0.7-1.6,0.3-2.8c-0.5-1.4-1.5-2-2.6-1.6c-0.8,0.3-1.2,1.1-1.1,2.5l0.1,1.5c0.2,2.1-0.1,3.7-1.8,4.3
		c-2.1,0.8-3.9-0.8-4.7-3c-0.6-1.7-0.4-3.5,0.5-4.4c0.1-0.1,0.3-0.4,0.6-0.5c0.4-0.1,0.7,0,0.9,0.3c0.1,0.3,0,0.6-0.3,0.8
		c-0.9,0.8-0.9,2.1-0.5,3.3c0.5,1.5,1.6,2.5,2.8,2.1c1-0.4,1.2-1.3,1-2.6l-0.2-1.8c-0.2-2.1,0.5-3.4,1.9-3.9
		c1.8-0.6,3.6,0.5,4.3,2.6C182.4,66.8,182.1,68.3,181.3,69.3z"/>
	<path class="st1" d="M183.7,81.8l1.6-0.3c0.4-0.1,0.8,0.2,0.9,0.6c0.1,0.4-0.2,0.8-0.6,0.9l-10.1,2.1c-0.4,0.1-0.8-0.2-0.9-0.6
		c-0.1-0.4,0.2-0.8,0.6-0.9l1.8-0.4c-1.7-0.3-3.1-1.7-3.5-3.5c-0.5-2.5,0.7-5.8,4.7-6.7c3.9-0.8,6.5,1.7,7,4.2
		C185.6,78.9,185.1,80.7,183.7,81.8z M180.3,82.6c3.2-0.7,4.1-3.1,3.7-5c-0.4-1.9-2.3-3.8-5.4-3.1c-3.1,0.7-4.1,3.2-3.7,5.1
		C175.3,81.4,177.2,83.3,180.3,82.6z"/>
	<path class="st1" d="M186.6,93.1c-0.4,0-0.8-0.3-0.8-1c-0.2-2.2-2.1-3.6-3.6-3.7l-6.3,0.5c-0.4,0-0.8-0.3-0.8-0.7s0.3-0.8,0.7-0.8
		l10.2-0.8c0.4,0,0.8,0.3,0.8,0.7c0,0.4-0.3,0.8-0.7,0.8l-2,0.2c0.7,0.1,3,1.4,3.2,3.9C187.3,92.7,187,93.1,186.6,93.1z"/>
	<path class="st1" d="M186.4,102.4c-0.4,0-0.7-0.4-0.7-1.1c0.1-2.2-1.7-3.8-3.2-4.1l-6.3-0.2c-0.4,0-0.8-0.4-0.8-0.8
		c0-0.4,0.4-0.8,0.8-0.7l10.3,0.3c0.4,0,0.8,0.4,0.8,0.8c0,0.4-0.4,0.8-0.8,0.7l-2-0.1c0.7,0.2,2.8,1.7,2.7,4.2
		C187.2,102.1,186.9,102.4,186.4,102.4z"/>
	<path class="st1" d="M179.5,114.9c-4-0.6-5.4-4.1-5.1-6.6c0.4-2.6,2.8-5.4,6.8-4.8c3.9,0.6,5.4,4.1,5,6.6
		C185.9,112.6,183.5,115.5,179.5,114.9z M181,104.9c-3.1-0.5-4.9,1.6-5.2,3.5c-0.3,2,0.9,4.5,4,4.9c3.1,0.5,4.9-1.6,5.2-3.6
		C185.3,107.9,184.1,105.4,181,104.9z"/>
	<path class="st1" d="M172.9,116.5c0.1-0.4,0.6-0.6,1-0.5l14.1,3.7c0.4,0.1,0.7,0.5,0.5,0.9c-0.1,0.4-0.5,0.6-0.9,0.5l-14.1-3.7
		C173,117.3,172.7,116.9,172.9,116.5z"/>
	<path class="st1" d="M171.7,120.3c0.1-0.4,0.6-0.6,1-0.5l13.9,4.4c0.4,0.1,0.6,0.6,0.5,1c-0.1,0.4-0.6,0.6-1,0.5l-13.9-4.4
		C171.9,121.2,171.6,120.7,171.7,120.3z"/>
	<path class="st1" d="M175.8,135.6l1.5,0.7c0.4,0.2,0.6,0.6,0.4,1c-0.2,0.4-0.6,0.6-1,0.4l-9.4-4.1c-0.4-0.2-0.6-0.6-0.4-1
		c0.2-0.4,0.7-0.5,1-0.4l1.7,0.8c-1.2-1.2-1.5-3.2-0.8-4.9c1-2.3,4-4.3,7.7-2.7c3.7,1.6,4.2,5.2,3.2,7.5
		C179.1,134.3,177.6,135.5,175.8,135.6z M172.6,134.3c3,1.3,5.1-0.2,5.9-1.9c0.8-1.7,0.3-4.4-2.5-5.7c-2.9-1.3-5.2,0.2-5.9,2
		C169.2,130.4,169.7,133,172.6,134.3z"/>
	<path class="st1" d="M172.5,152.4l-12.2-8c-0.3-0.2-0.5-0.7-0.2-1.1c0.2-0.3,0.7-0.4,1.1-0.2l1.6,1c-1-1.4-1-3.4,0-5
		c1.4-2.1,4.7-3.6,8.1-1.4c3.3,2.2,3.3,5.8,2,7.9c-0.9,1.4-2.6,2.4-4.4,2.1l1.4,0.9c0.1,0,0.1,0.1,0.1,0.1l3.4,2.2
		c0.4,0.2,0.5,0.7,0.2,1.1C173.4,152.6,172.9,152.7,172.5,152.4z M165.5,146.1c2.7,1.8,5.1,0.7,6.1-0.9c1-1.6,1.1-4.3-1.6-6
		c-2.7-1.7-5.1-0.6-6.2,1C162.8,141.7,162.8,144.4,165.5,146.1z"/>
	<path class="st1" d="M155.3,157.9c-3-2.7-2.3-6.4-0.5-8.3c1.7-1.9,5.4-2.9,8.3-0.2c2.9,2.7,2.2,6.4,0.5,8.3
		C161.9,159.6,158.3,160.6,155.3,157.9z M162.1,150.5c-2.3-2.1-5-1.4-6.3,0c-1.3,1.5-1.8,4.2,0.5,6.3c2.3,2.1,5,1.4,6.3-0.1
		C163.9,155.3,164.4,152.6,162.1,150.5z"/>
	<path class="st1" d="M151.7,167.7c-0.3-0.3-0.2-0.8,0.3-1.2c1.7-1.4,1.7-3.8,0.9-5.1l-4.1-4.8c-0.3-0.3-0.2-0.8,0.1-1.1
		c0.3-0.3,0.8-0.2,1.1,0.1l6.6,7.9c0.3,0.3,0.2,0.8-0.1,1.1c-0.3,0.3-0.8,0.2-1.1-0.1l-1.3-1.5c0.4,0.7,0.6,3.2-1.3,4.8
		C152.4,168.1,152,168.1,151.7,167.7z"/>
	<path class="st1" d="M125.4,177.9l-2.7-5.6c-0.2-0.4,0-0.9,0.3-1c0.4-0.2,0.9,0,1,0.4l2.7,5.6c1.1,2.3,3,2.5,4.5,1.8
		c2.2-1,2.5-3.4,2.1-4.8l0-0.1l-2.7-5.6c-0.2-0.4,0-0.9,0.3-1c0.4-0.2,0.9,0,1,0.4l2.7,5.6c1.1,2.3,3,2.5,4.5,1.8
		c2.1-1,2.5-3.4,2-4.8l-2.8-5.7c-0.2-0.4,0-0.9,0.3-1c0.4-0.2,0.9,0,1,0.4l4.5,9.2c0.2,0.4,0,0.9-0.3,1c-0.4,0.2-0.8,0-1-0.4
		l-0.9-1.8c0.2,0.7-0.1,3.2-2.6,4.4c-1.5,0.7-3.5,0.8-5-0.9c0,1.6-0.6,3.6-2.8,4.7C129.7,181.4,127,181.3,125.4,177.9z"/>
	<path class="st1" d="M111,180.3c-1-3.9,1.7-6.6,4.2-7.2c2.5-0.6,6.1,0.5,7,4.4c0.9,3.9-1.7,6.6-4.2,7.2
		C115.6,185.4,112,184.2,111,180.3z M120.8,177.9c-0.7-3-3.3-4-5.2-3.5c-1.9,0.5-3.8,2.5-3.1,5.5c0.7,3,3.3,3.9,5.3,3.5
		C119.7,183,121.6,181,120.8,177.9z M116.9,189.8c0-0.2,0-0.3,0.1-0.5l1.5-3.5c0-0.1,0.2-0.3,0.3-0.3c0.3-0.1,0.6,0.2,0.6,0.6
		l-0.8,3.7c-0.1,0.3-0.3,0.6-0.6,0.7C117.5,190.6,117,190.3,116.9,189.8z"/>
	<path class="st1" d="M99.9,186.6c0-0.1,0-0.2,0-0.3l3.4-10.5c0.1-0.4,0.3-0.6,0.7-0.7c0.4,0,0.6,0.2,0.8,0.5l5.4,9.7
		c0,0.1,0.1,0.2,0.1,0.3c0,0.4-0.2,0.7-0.6,0.8c-0.3,0-0.6-0.1-0.8-0.4l-4.7-8.6l-2.9,9.3c-0.1,0.3-0.4,0.5-0.7,0.6
		C100.3,187.3,100,187,99.9,186.6z"/>
	<path class="st1" d="M97,191c0,0.4-0.4,0.8-0.8,0.8s-0.8-0.4-0.8-0.8c0-0.4,0.4-0.8,0.8-0.8C96.6,190.2,97,190.6,97,191z
		 M95.5,186.5l0.2-10.3c0-0.4,0.3-0.8,0.8-0.8c0.4,0,0.8,0.4,0.7,0.8L97,186.5c0,0.4-0.3,0.8-0.8,0.8
		C95.8,187.3,95.5,186.9,95.5,186.5z"/>
	<path class="st1" d="M92.4,175.3c0.4,0,0.7,0.4,0.7,0.8l-0.7,14.6c0,0.4-0.4,0.7-0.8,0.7c-0.4,0-0.7-0.4-0.7-0.8l0.7-14.6
		C91.6,175.7,92,175.3,92.4,175.3z"/>
	<path class="st1" d="M82.6,180.8c-0.1,0.5-0.6,0.9-1.1,0.8c-0.5-0.1-0.9-0.6-0.8-1.1c0.1-0.5,0.6-0.9,1.1-0.8
		C82.4,179.7,82.7,180.2,82.6,180.8z"/>
	<path class="st1" d="M59.4,183.2c0.1-0.4,0.6-0.5,0.9-0.4l3.8,1.4l4.6-12.8c0.1-0.4,0.6-0.6,1-0.5c0.4,0.2,0.6,0.6,0.5,1l-4.6,12.8
		l3.9,1.4c0.3,0.1,0.5,0.5,0.4,0.9c-0.1,0.3-0.5,0.5-0.9,0.4l-9.2-3.3C59.5,183.9,59.3,183.5,59.4,183.2z"/>
	<path class="st1" d="M51.1,180.6c0.1-0.2,0.2-0.3,0.4-0.4l3.4-1.7c0.1-0.1,0.3-0.1,0.5,0c0.3,0.2,0.4,0.5,0.1,0.8l-3,2.3
		c-0.3,0.2-0.6,0.3-0.9,0.1C51.1,181.5,50.9,181,51.1,180.6z M52.9,169.9c0.3-0.5,0.7-0.6,1.3-0.3l7.8,4c1.1-2.5-0.2-4.6-2.1-5.6
		c-1-0.5-2-0.6-3-0.4c-0.4,0.1-0.6,0.1-0.8,0c-0.3-0.2-0.4-0.5-0.3-0.8c0.1-0.2,0.3-0.3,0.7-0.4c1.2-0.3,2.6-0.1,3.9,0.5
		c2.5,1.3,4.4,4.4,2.5,8c-1.8,3.6-5.5,3.9-7.8,2.7C53,176.3,51.2,173.2,52.9,169.9z M61.4,174.6l-7.4-3.7c-1.1,2.5,0.3,4.6,1.9,5.4
		C57.5,177.1,60,177,61.4,174.6z"/>
	<path class="st1" d="M45.1,160c0.2-0.2,0.4-0.3,0.7-0.3c1.6-0.5,3.2-0.1,4.5,0.8c2.1,1.5,3.6,5,1.3,8.2c-2.3,3.3-6,3-8.2,1.5
		c-1.4-1-2.2-2.4-2.2-4c0-0.3-0.1-0.5,0.1-0.7c0.2-0.3,0.6-0.3,0.9-0.1c0.2,0.2,0.3,0.4,0.3,0.7c0,1.2,0.7,2.3,1.6,3
		c1.7,1.2,4.4,1.3,6.2-1.3c1.8-2.5,0.8-5.1-0.9-6.3c-0.9-0.7-2.2-1-3.3-0.6c-0.3,0.1-0.6,0.1-0.8-0.1
		C44.9,160.7,44.8,160.3,45.1,160z"/>
	<path class="st1" d="M33.1,154.7l4.3-4.5c0.3-0.3,0.8-0.3,1.1,0c0.3,0.3,0.3,0.8,0,1.1l-4.3,4.5c-1.8,1.9-1.3,3.7-0.1,4.8
		c1.7,1.7,4,1.2,5.2,0.3l4.4-4.5c0.3-0.3,0.8-0.3,1.1,0c0.3,0.3,0.3,0.8,0,1.1l-7.1,7.4c-0.3,0.3-0.8,0.3-1.1,0
		c-0.3-0.3-0.3-0.8,0-1.1l1.4-1.5c-0.6,0.4-3.1,1-5.1-0.9C31.4,159.9,30.5,157.4,33.1,154.7z"/>
	<path class="st1" d="M24.6,157.9c-0.3,0.3-0.8,0.2-1.1-0.1c-0.3-0.3-0.2-0.8,0.1-1.1c0.3-0.3,0.8-0.2,1.1,0.1
		C25,157.1,24.9,157.6,24.6,157.9z M27.1,153.8l7.9-6.6c0.3-0.3,0.8-0.2,1.1,0.1c0.3,0.3,0.2,0.8-0.1,1.1l-7.9,6.6
		c-0.3,0.3-0.8,0.2-1.1-0.1C26.7,154.6,26.7,154.1,27.1,153.8z"/>
	<path class="st1" d="M26.3,138.3c0.2-0.2,0.5-0.1,0.7-0.1c1.6,0.1,3,0.9,4,2.3c1.5,2.2,1.6,5.9-1.6,8.1c-3.3,2.3-6.7,0.8-8.2-1.4
		c-0.9-1.4-1.3-3-0.7-4.5c0.1-0.2,0.1-0.5,0.3-0.6c0.3-0.2,0.7-0.1,0.9,0.2c0.2,0.2,0.2,0.5,0.1,0.8c-0.4,1.1-0.1,2.4,0.5,3.4
		c1.2,1.7,3.7,2.7,6.3,1c2.6-1.8,2.5-4.5,1.3-6.2c-0.6-0.9-1.7-1.7-2.9-1.7c-0.3,0-0.6-0.1-0.7-0.3C25.9,139,26,138.6,26.3,138.3z"
		/>
	<path class="st1" d="M17.5,128.3c3.6-1.8,6.8,0.3,7.9,2.6c1.1,2.3,0.8,6.1-2.9,7.8c-3.6,1.7-6.8-0.3-7.9-2.6
		C13.5,133.8,13.9,130,17.5,128.3z M21.9,137.4c2.8-1.4,3.2-4.1,2.3-5.9c-0.9-1.8-3.2-3.2-6-1.8c-2.8,1.4-3.1,4.1-2.3,5.9
		C16.7,137.3,19.1,138.7,21.9,137.4z"/>
	<path class="st1" d="M7.5,111.6c0.1,0,0.2,0,0.3,0l15.6,2.8c0.4,0.1,0.6,0.3,0.6,0.6c0.1,0.4-0.2,0.7-0.5,0.8c-0.1,0-0.2,0-0.3,0
		l-4-0.7l-9,6.7c-0.1,0-0.2,0.1-0.3,0.1c-0.4,0.1-0.8-0.1-0.9-0.5c-0.1-0.3,0-0.6,0.3-0.8l8-5.8L7.6,113c-0.4-0.1-0.6-0.3-0.6-0.6
		C6.9,112.1,7.1,111.7,7.5,111.6z"/>
	<path class="st1" d="M17.6,101c0,0.4-0.3,0.8-0.7,0.8l-14.6,0.8c-0.4,0-0.8-0.3-0.8-0.7c0-0.4,0.3-0.8,0.7-0.8l14.6-0.8
		C17.2,100.3,17.6,100.6,17.6,101z"/>
	<path class="st1" d="M11.9,86.6c4,0.2,5.8,3.5,5.7,6.1c-0.1,2.6-2.2,5.7-6.3,5.5c-4-0.2-5.8-3.5-5.7-6.1
		C5.8,89.5,7.9,86.4,11.9,86.6z M11.4,96.6c3.1,0.2,4.7-2.1,4.8-4c0.1-2-1.3-4.4-4.4-4.5c-3.1-0.1-4.7,2.1-4.8,4.1
		C6.9,94.1,8.3,96.5,11.4,96.6z"/>
	<path class="st1" d="M17.5,75.4c0.3,0.1,0.4,0.3,0.6,0.5c1.1,1.2,1.4,2.8,1.1,4.5c-0.5,2.6-3.1,5.3-7,4.5C8.3,84,7,80.5,7.5,78
		c0.3-1.6,1.3-3,2.7-3.7c0.2-0.1,0.4-0.3,0.7-0.2c0.4,0.1,0.6,0.4,0.5,0.8c-0.1,0.3-0.3,0.5-0.5,0.6c-1.1,0.5-1.8,1.6-2,2.7
		c-0.4,2,0.6,4.5,3.7,5.1c3,0.6,5-1.3,5.4-3.3c0.2-1.1,0-2.4-0.9-3.3c-0.2-0.2-0.3-0.5-0.3-0.8C16.8,75.6,17.1,75.3,17.5,75.4z"/>
	<path class="st1" d="M15.9,72.7l-5.8-2.1c-0.4-0.1-0.6-0.6-0.5-1c0.1-0.4,0.6-0.6,1-0.4l5.8,2.1c2.4,0.9,3.9-0.3,4.4-1.8
		c0.8-2.2-0.6-4.1-1.9-4.9l-5.9-2.2c-0.4-0.1-0.6-0.6-0.5-1c0.1-0.4,0.6-0.6,1-0.4l9.7,3.5c0.4,0.1,0.6,0.6,0.5,1
		c-0.1,0.4-0.6,0.6-1,0.4l-1.9-0.7c0.6,0.4,2.1,2.4,1.2,5C21.3,72.1,19.4,73.9,15.9,72.7z"/>
	<path class="st1" d="M26.4,57.9c0.7,0.3,0.4,1.4,0,2.2c-0.5,1-1.3,1.7-2.9,0.9l-7.4-3.7l-0.5,1c-0.2,0.3-0.5,0.5-0.9,0.3
		c-0.4-0.2-0.5-0.5-0.3-0.9l0.5-1l-1.8-0.9c-0.4-0.2-0.5-0.6-0.3-1c0.2-0.4,0.6-0.5,1-0.3l1.8,0.9l0.9-1.7c0.2-0.3,0.5-0.5,0.9-0.3
		c0.4,0.2,0.4,0.6,0.3,0.9l-0.9,1.7l7.3,3.7c0.6,0.3,1,0.2,1.3-0.4c0.2-0.3,0.2-0.6,0.3-0.9C25.7,57.9,26.1,57.7,26.4,57.9z"/>
	<path class="st1" d="M29.1,44.5c3.3,2.2,3.2,6,1.7,8.2c-1.4,2.1-4.9,3.7-8.2,1.5c-3.3-2.2-3.2-6-1.7-8.1
		C22.3,43.9,25.7,42.3,29.1,44.5z M23.5,52.9c2.6,1.7,5.1,0.7,6.2-1c1.1-1.6,1.1-4.4-1.5-6.1c-2.6-1.7-5.1-0.6-6.2,1
		C20.9,48.4,20.9,51.2,23.5,52.9z"/>
	<path class="st1" d="M31.1,34.3c0.3,0.3,0.3,0.8-0.1,1.3c-1.5,1.7-1.1,4-0.1,5.2l4.7,4.2c0.3,0.3,0.4,0.8,0.1,1.1
		c-0.3,0.3-0.8,0.3-1.1,0.1l-7.7-6.8c-0.3-0.3-0.4-0.8-0.1-1.1c0.3-0.3,0.8-0.3,1.1-0.1l1.5,1.3c-0.5-0.6-1.1-3.1,0.6-5
		C30.4,34.1,30.8,34,31.1,34.3z"/>
	<path class="st1" d="M40.2,32.2c-0.3-0.4-0.3-1,0.1-1.3c0.4-0.3,1-0.3,1.3,0.1c0.3,0.4,0.3,1-0.1,1.3
		C41.2,32.7,40.6,32.6,40.2,32.2z"/>
</g>
</svg>
