<?xml version="1.0" encoding="utf-8"?>
<!-- Generator: Adobe Illustrator 27.0.0, SVG Export Plug-In . SVG Version: 6.00 Build 0)  -->
<svg version="1.1" id="Capa_1" xmlns="http://www.w3.org/2000/svg" xmlns:xlink="http://www.w3.org/1999/xlink" x="0px" y="0px"
	 viewBox="0 0 358 358" style="enable-background:new 0 0 358 358;" xml:space="preserve">
<style type="text/css">
	.st0{fill:none;stroke:url(#SVGID_1_);}
	.st1{fill:none;stroke:url(#SVGID_00000159460772264313420890000009653767387245735328_);}
	.st2{fill:none;stroke:url(#SVGID_00000121240204026009951990000013998817178330620823_);}
	.st3{fill:none;stroke:url(#SVGID_00000155866729349608434300000008161771093740511409_);}
	.st4{fill:none;stroke:url(#SVGID_00000103264547581562369990000010734070561449784509_);}
	.st5{fill:none;stroke:url(#SVGID_00000026884142468698967020000018004211026753474732_);}
	.st6{fill:none;stroke:url(#SVGID_00000079444913385787776620000003199177061256448949_);}
	.st7{fill:none;stroke:url(#SVGID_00000043434243933249454970000006987171822871608464_);}
	.st8{fill:none;stroke:url(#SVGID_00000067956017941019829680000007155528686288115883_);}
	.st9{fill:none;stroke:url(#SVGID_00000031172671526733915790000011597257365706595501_);}
	.st10{fill:none;stroke:url(#SVGID_00000050637740723136380520000000084133168814234280_);}
	.st11{fill:#828D79;}
	.st12{fill:#FFF9E5;}
	.st13{fill:none;stroke:#828D79;}
	.st14{fill:#9CAC8E;}
	.st15{fill:none;stroke:#FFFFFF;}
	.st16{fill:#BACDA5;}
	.st17{fill:#FFFBEB;}
	.st18{fill:#EAEDD5;}
</style>
<linearGradient id="SVGID_1_" gradientUnits="userSpaceOnUse" x1="90.8402" y1="268.1597" x2="145.7289" y2="213.2703" gradientTransform="matrix(1 0 0 -1 0 359)">
	<stop  offset="0" style="stop-color:#76AC93"/>
	<stop  offset="1" style="stop-color:#76AC93;stop-opacity:0"/>
</linearGradient>
<path class="st0" d="M12.6,189.3L12.6,189.3L12.6,189.3c-3.4-0.3-5.5-1.2-6.7-2.4c-1.2-1.2-1.6-2.7-1.4-4.4c0.2-1.7,0.9-3.7,2.1-5.6
	c1.1-1.9,2.6-3.7,4.1-5.2L173.3,9.1c1.5-1.5,3.2-2.8,5-3.7c1.7-0.9,3.5-1.4,5-1.2c1.5,0.1,2.9,0.8,4,2.4c1.1,1.6,1.9,4,2.2,7.5l0,0
	l6.6,68.7c-1,8-2.1,14.1-8.1,20.1l-86.6,86.6c-6.1,6.1-13.1,7.8-19.4,7.5L12.6,189.3z"/>
<linearGradient id="SVGID_00000047744853584333999560000000011607495490562705_" gradientUnits="userSpaceOnUse" x1="108.4044" y1="250.5946" x2="152.3156" y2="206.6834" gradientTransform="matrix(1 0 0 -1 0 359)">
	<stop  offset="0" style="stop-color:#76AC93"/>
	<stop  offset="1" style="stop-color:#76AC93;stop-opacity:0"/>
</linearGradient>
<path style="fill:none;stroke:url(#SVGID_00000047744853584333999560000000011607495490562705_);" d="M28.1,204.8L28.1,204.8
	L28.1,204.8c-3,0-4.7-0.6-5.7-1.5c-0.9-0.9-1.1-2.2-0.8-3.7c0.3-1.6,1.2-3.4,2.4-5.2c1.2-1.8,2.7-3.6,4.2-5.1L190.9,26.6
	c1.5-1.5,3.2-2.9,4.9-3.9c1.7-1,3.3-1.6,4.7-1.6c1.3,0,2.4,0.4,3.2,1.7c0.8,1.2,1.3,3.3,1.2,6.5v0l-1,61.2c-1.7,7.2-3.3,12.9-9.4,19
	L107.9,196c-6.1,6.1-12.6,8.3-18.3,8.7L28.1,204.8z"/>
<linearGradient id="SVGID_00000065780049550815455060000004084036849623105190_" gradientUnits="userSpaceOnUse" x1="125.9693" y1="233.0301" x2="158.9028" y2="200.0966" gradientTransform="matrix(1 0 0 -1 0 359)">
	<stop  offset="0" style="stop-color:#76AC93"/>
	<stop  offset="1" style="stop-color:#76AC93;stop-opacity:0"/>
</linearGradient>
<path style="fill:none;stroke:url(#SVGID_00000065780049550815455060000004084036849623105190_);" d="M43.5,220.3L43.5,220.3
	L43.5,220.3c-1.3,0.2-2.3,0.2-3.1,0.1c-0.8-0.1-1.3-0.4-1.6-0.6c-0.6-0.6-0.7-1.6-0.2-3c0.5-1.4,1.5-3.2,2.8-4.9
	c1.3-1.7,2.8-3.5,4.4-5L208.4,44.2c1.5-1.5,3.2-2.9,4.8-4c1.6-1.1,3.1-1.8,4.3-2c0.6-0.1,1.1-0.1,1.5,0.1c0.4,0.1,0.7,0.4,1,0.9
	c0.5,0.9,0.7,2.6,0.2,5.4l0,0l-8.5,53.7c-2.4,6.5-4.5,11.7-10.6,17.8l-86.6,86.6c-6.1,6.1-12.1,8.9-17.1,9.9L43.5,220.3z"/>
<linearGradient id="SVGID_00000045595907014502223200000015401102130909218986_" gradientUnits="userSpaceOnUse" x1="143.5322" y1="215.4673" x2="165.4898" y2="193.5087" gradientTransform="matrix(1 0 0 -1 0 359)">
	<stop  offset="0" style="stop-color:#76AC93"/>
	<stop  offset="1" style="stop-color:#76AC93;stop-opacity:0"/>
</linearGradient>
<path style="fill:none;stroke:url(#SVGID_00000045595907014502223200000015401102130909218986_);" d="M58.9,235.8L58.9,235.8
	L58.9,235.8c-1.1,0.4-2,0.6-2.6,0.6c-0.6,0-0.9-0.1-1-0.2c-0.1-0.1-0.2-0.3-0.1-0.7c0.1-0.4,0.3-1,0.6-1.6c1.3-2.6,4.6-6.4,7.7-9.5
	L226,61.8c1.5-1.5,3.2-3,4.7-4.2c1.5-1.2,2.9-2,4-2.4c0.5-0.2,0.9-0.2,1.2-0.2c0.2,0,0.4,0.2,0.5,0.4c0.1,0.3,0.2,0.8,0,1.5
	c-0.1,0.7-0.4,1.7-0.8,2.9l0,0l-16,46.1c-3.1,5.9-5.7,10.5-11.8,16.7l-86.6,86.6c-6.1,6.1-11.6,9.5-16,11.2L58.9,235.8z"/>
<linearGradient id="SVGID_00000159439654066135279880000017046924030149714847_" gradientUnits="userSpaceOnUse" x1="161.0694" y1="197.8796" x2="172.0521" y2="186.896" gradientTransform="matrix(1 0 0 -1 0 359)">
	<stop  offset="0" style="stop-color:#76AC93"/>
	<stop  offset="1" style="stop-color:#76AC93;stop-opacity:0"/>
</linearGradient>
<path style="fill:none;stroke:url(#SVGID_00000159439654066135279880000017046924030149714847_);" d="M74.3,251.4L74.3,251.4
	L74.3,251.4c-1,0.6-1.6,0.9-2.1,1.1c-0.1,0-0.2,0.1-0.3,0.1c0,0,0-0.1,0.1-0.1c0.2-0.3,0.4-0.8,0.9-1.4c1.7-2.3,5.1-6,8.2-9.1
	L243.6,79.3c3.1-3.1,6.4-6,8.2-7.2c0.4-0.2,0.6-0.3,0.8-0.4c0,0,0,0.1,0,0.2c-0.1,0.2-0.1,0.4-0.3,0.7c-0.3,0.6-0.7,1.4-1.3,2.4l0,0
	l-23.6,38.6c-3.8,5.2-6.9,9.4-13.1,15.5l-86.6,86.6c-6.2,6.2-11.2,10.1-14.9,12.4L74.3,251.4z M71.6,252.6
	C71.6,252.6,71.6,252.6,71.6,252.6C71.6,252.6,71.6,252.6,71.6,252.6z M252.8,71.7C252.8,71.7,252.8,71.7,252.8,71.7
	C252.8,71.7,252.8,71.7,252.8,71.7z"/>
<linearGradient id="SVGID_00000103246136867584552460000008246414927655642758_" gradientUnits="userSpaceOnUse" x1="266.4854" y1="92.5152" x2="211.5962" y2="147.4043" gradientTransform="matrix(1 0 0 -1 0 359)">
	<stop  offset="0" style="stop-color:#76AC93"/>
	<stop  offset="1" style="stop-color:#76AC93;stop-opacity:0"/>
</linearGradient>
<path style="fill:none;stroke:url(#SVGID_00000103246136867584552460000008246414927655642758_);" d="M168,344.7L168,344.7
	L168,344.7c0.3,3.4,1.2,5.5,2.4,6.7c1.2,1.2,2.7,1.6,4.4,1.4c1.7-0.2,3.7-0.9,5.6-2.1c1.9-1.1,3.7-2.6,5.2-4.1L348.2,184
	c1.5-1.5,2.8-3.2,3.7-5c0.9-1.7,1.4-3.5,1.2-5c-0.1-1.5-0.8-2.9-2.4-4c-1.6-1.1-4-1.9-7.5-2.2l0,0l-68.7-6.6c-8,1-14.1,2.1-20.1,8.1
	L167.9,256c-6.1,6.1-7.8,13.1-7.5,19.4L168,344.7z"/>
<linearGradient id="SVGID_00000137850340126617622930000009612955590338747539_" gradientUnits="userSpaceOnUse" x1="248.9199" y1="110.0798" x2="205.0088" y2="153.9909" gradientTransform="matrix(1 0 0 -1 0 359)">
	<stop  offset="0" style="stop-color:#76AC93"/>
	<stop  offset="1" style="stop-color:#76AC93;stop-opacity:0"/>
</linearGradient>
<path style="fill:none;stroke:url(#SVGID_00000137850340126617622930000009612955590338747539_);" d="M152.5,329.3L152.5,329.3
	L152.5,329.3c0,3,0.6,4.7,1.5,5.7c0.9,0.9,2.2,1.1,3.7,0.8c1.6-0.3,3.4-1.2,5.2-2.4c1.8-1.2,3.6-2.7,5.1-4.2l162.6-162.6
	c1.5-1.5,2.9-3.2,3.9-4.9c1-1.7,1.6-3.3,1.6-4.7c0-1.3-0.4-2.4-1.7-3.2c-1.2-0.8-3.3-1.3-6.5-1.2h0l-61.2,1
	c-7.2,1.7-12.9,3.3-19,9.4l-86.6,86.6c-6.1,6.1-8.3,12.6-8.7,18.3L152.5,329.3z"/>
<linearGradient id="SVGID_00000101063698118159899220000012983733535709218969_" gradientUnits="userSpaceOnUse" x1="231.3571" y1="127.6426" x2="198.4216" y2="160.5771" gradientTransform="matrix(1 0 0 -1 0 359)">
	<stop  offset="0" style="stop-color:#76AC93"/>
	<stop  offset="1" style="stop-color:#76AC93;stop-opacity:0"/>
</linearGradient>
<path style="fill:none;stroke:url(#SVGID_00000101063698118159899220000012983733535709218969_);" d="M137,313.8L137,313.8
	L137,313.8c-0.2,1.3-0.2,2.3-0.1,3.1c0.1,0.8,0.3,1.3,0.6,1.6c0.6,0.6,1.6,0.7,3,0.2c1.4-0.5,3.2-1.5,4.9-2.8c1.7-1.3,3.5-2.8,5-4.4
	l162.6-162.6c1.5-1.5,2.9-3.2,4-4.8c1.1-1.6,1.8-3.1,2-4.3c0.1-0.6,0.1-1.1-0.1-1.5c-0.1-0.4-0.4-0.7-0.9-1
	c-0.9-0.5-2.6-0.7-5.4-0.2l0,0l-53.7,8.5c-6.5,2.4-11.7,4.5-17.8,10.6l-86.6,86.6c-6.1,6.1-8.9,12.1-9.9,17.1L137,313.8z"/>
<linearGradient id="SVGID_00000149350298359896368180000002509337980534091187_" gradientUnits="userSpaceOnUse" x1="213.7916" y1="145.2085" x2="191.836" y2="167.1641" gradientTransform="matrix(1 0 0 -1 0 359)">
	<stop  offset="0" style="stop-color:#76AC93"/>
	<stop  offset="1" style="stop-color:#76AC93;stop-opacity:0"/>
</linearGradient>
<path style="fill:none;stroke:url(#SVGID_00000149350298359896368180000002509337980534091187_);" d="M121.5,298.4L121.5,298.4
	L121.5,298.4c-0.4,1.1-0.6,2-0.6,2.6c0,0.6,0.1,0.9,0.2,1c0.1,0.1,0.3,0.2,0.7,0.1c0.4-0.1,1-0.3,1.6-0.6c2.6-1.3,6.4-4.6,9.5-7.7
	l162.6-162.6c1.5-1.5,3-3.2,4.2-4.7c1.2-1.5,2-2.9,2.4-4c0.2-0.5,0.2-0.9,0.2-1.2c0-0.2-0.2-0.4-0.4-0.5c-0.3-0.1-0.8-0.2-1.5,0
	c-0.7,0.1-1.7,0.4-2.9,0.8l0,0l-46.1,16c-5.9,3.1-10.5,5.7-16.7,11.8l-86.6,86.6c-6.1,6.1-9.5,11.6-11.2,16L121.5,298.4z"/>
<linearGradient id="SVGID_00000081623134186642347300000004940486927562704277_" gradientUnits="userSpaceOnUse" x1="196.2109" y1="162.7494" x2="185.2281" y2="173.7332" gradientTransform="matrix(1 0 0 -1 0 359)">
	<stop  offset="0" style="stop-color:#76AC93"/>
	<stop  offset="1" style="stop-color:#76AC93;stop-opacity:0"/>
</linearGradient>
<path style="fill:none;stroke:url(#SVGID_00000081623134186642347300000004940486927562704277_);" d="M105.9,283L105.9,283
	L105.9,283c-0.6,1-0.9,1.6-1.1,2.1c0,0.1-0.1,0.2-0.1,0.3c0,0,0.1,0,0.1-0.1c0.3-0.2,0.8-0.4,1.4-0.9c2.3-1.7,6-5.1,9.1-8.2
	L278,113.8c3.1-3.1,6-6.4,7.2-8.2c0.2-0.4,0.3-0.6,0.4-0.8c0,0-0.1,0-0.2,0c-0.2,0.1-0.4,0.1-0.7,0.3c-0.6,0.3-1.4,0.7-2.4,1.3l0,0
	L243.7,130c-5.2,3.8-9.4,6.9-15.5,13.1l-86.6,86.6c-6.2,6.2-10.1,11.2-12.4,14.9L105.9,283z M104.7,285.7
	C104.7,285.7,104.7,285.7,104.7,285.7C104.7,285.7,104.7,285.7,104.7,285.7z M285.6,104.6C285.6,104.6,285.6,104.6,285.6,104.6
	C285.6,104.6,285.6,104.6,285.6,104.6z"/>
<linearGradient id="SVGID_00000152264104111853780120000012757228194297022639_" gradientUnits="userSpaceOnUse" x1="87.3895" y1="178.309" x2="269.2285" y2="178.309">
	<stop  offset="0" style="stop-color:#76AC93"/>
	<stop  offset="1" style="stop-color:#76AC93;stop-opacity:0"/>
</linearGradient>
<line style="fill:none;stroke:url(#SVGID_00000152264104111853780120000012757228194297022639_);" x1="87.7" y1="268.9" x2="268.9" y2="87.7"/>
<path class="st11" d="M26.7,118.2l57.7-16.5c8.5-2.4,17.4,2.5,19.8,11l0,0c2.4,8.5-2.5,17.4-11,19.8l-57.7,16.5
	c-8.5,2.4-17.4-2.5-19.8-11l0,0C13.3,129.5,18.2,120.6,26.7,118.2z"/>
<path class="st12" d="M191.4,46.5l103.4,10.9c8.5,0.9,14.7,8.5,13.8,17v0c-0.9,8.5-8.5,14.7-17,13.8L188.2,77.3
	c-8.5-0.9-14.7-8.5-13.8-17v0C175.3,51.8,182.9,45.6,191.4,46.5z"/>
<path class="st13" d="M191.4,46.5l103.4,10.9c8.5,0.9,14.7,8.5,13.8,17v0c-0.9,8.5-8.5,14.7-17,13.8L188.2,77.3
	c-8.5-0.9-14.7-8.5-13.8-17v0C175.3,51.8,182.9,45.6,191.4,46.5z"/>
<path class="st14" d="M159,217.7l100.6-8.8c8.5-0.7,16,5.6,16.8,14.1l0,0c0.7,8.5-5.6,16-14.1,16.8l-100.6,8.8
	c-8.5,0.7-16-5.6-16.8-14.1l0,0C144.1,226,150.5,218.4,159,217.7z"/>
<path class="st15" d="M159,217.7l100.6-8.8c8.5-0.7,16,5.6,16.8,14.1l0,0c0.7,8.5-5.6,16-14.1,16.8l-100.6,8.8
	c-8.5,0.7-16-5.6-16.8-14.1l0,0C144.1,226,150.5,218.4,159,217.7z"/>
<path class="st16" d="M240.6,237.5l42.9,19.1c8.1,3.6,11.7,13.1,8.1,21.1l0,0c-3.6,8.1-13.1,11.7-21.1,8.1l-42.9-19.1
	c-8.1-3.6-11.7-13.1-8.1-21.1l0,0C223.1,237.5,232.6,233.9,240.6,237.5z"/>
<g>
	<path class="st17" d="M36.6,126.9c0.2-0.1,0.3,0,0.5,0c0.2,0.1,0.3,0.2,0.3,0.4l2.3,7.8c0.1,0.2,0,0.4-0.1,0.6
		c-0.1,0.2-0.3,0.3-0.5,0.4c-0.2,0.1-0.4,0-0.6-0.1c-0.2-0.1-0.3-0.3-0.4-0.5l-1.4-4.9l-1.3,5.7c-0.1,0.3-0.3,0.5-0.5,0.6
		c-0.3,0.1-0.6,0-0.8-0.2l-4.1-4.1l1.4,4.9c0.1,0.2,0,0.4-0.1,0.6c-0.1,0.2-0.3,0.3-0.5,0.4c-0.2,0.1-0.4,0-0.6-0.1
		c-0.2-0.1-0.3-0.3-0.4-0.5l-2.3-7.8c-0.1-0.2,0-0.4,0.1-0.6c0.1-0.2,0.2-0.3,0.4-0.3c0.3-0.1,0.6,0,0.9,0.3l5.3,5.2l1.6-7.2
		C36,127.2,36.3,127,36.6,126.9z"/>
	<path class="st17" d="M42.5,127.6c0.9-0.3,1.7-0.2,2.3,0.4l-0.1-0.2c-0.1-0.2,0-0.4,0.1-0.6c0.1-0.2,0.2-0.3,0.4-0.4
		c0.2-0.1,0.4,0,0.6,0.1c0.2,0.1,0.3,0.2,0.4,0.4l1.6,5.5c0.1,0.2,0,0.4-0.1,0.6c-0.1,0.2-0.2,0.3-0.4,0.4c-0.2,0.1-0.4,0-0.6-0.1
		c-0.2-0.1-0.3-0.2-0.4-0.4l-0.1-0.5c0.1,0.3-0.1,0.6-0.4,1c-0.3,0.4-0.8,0.6-1.3,0.8c-0.4,0.1-0.8,0.1-1.2,0.1
		c-0.4,0-0.8-0.2-1.2-0.3c-0.4-0.2-0.8-0.5-1.1-0.9c-0.3-0.4-0.6-0.9-0.7-1.4c-0.2-0.6-0.2-1.1-0.2-1.6c0.1-0.5,0.2-1,0.4-1.3
		c0.2-0.4,0.5-0.7,0.8-0.9C41.8,127.9,42.2,127.7,42.5,127.6z M43.1,128.8c-0.5,0.1-0.9,0.5-1.2,1c-0.3,0.5-0.3,1.1-0.1,1.8
		c0.2,0.7,0.6,1.2,1.1,1.5c0.5,0.3,1,0.4,1.5,0.2c0.5-0.2,0.9-0.5,1.2-1c0.3-0.5,0.3-1.1,0.1-1.8c-0.2-0.7-0.6-1.3-1.1-1.5
		C44.1,128.7,43.6,128.7,43.1,128.8z"/>
	<path class="st17" d="M51.4,125.1c0.2-0.1,0.4-0.1,0.6,0c0.2,0.1,0.3,0.2,0.3,0.4c0.1,0.2,0,0.4-0.1,0.5c-0.1,0.2-0.3,0.3-0.5,0.3
		l-0.2,0.1c-1.1,0.3-1.6,1-1.7,2.1l1,3.4c0.1,0.2,0,0.4-0.1,0.6c-0.1,0.2-0.2,0.3-0.4,0.4c-0.2,0.1-0.4,0-0.6-0.1
		c-0.2-0.1-0.3-0.2-0.4-0.4l-1.6-5.5c-0.1-0.2,0-0.4,0.1-0.6c0.1-0.2,0.2-0.3,0.4-0.4c0.2-0.1,0.4,0,0.6,0.1
		c0.2,0.1,0.3,0.3,0.4,0.4l0.2,0.6c0.2-0.5,0.4-0.9,0.8-1.2C50.5,125.4,50.9,125.2,51.4,125.1z"/>
	<path class="st17" d="M61,129.1c0.1,0.2,0,0.3-0.1,0.5c-0.1,0.2-0.2,0.3-0.4,0.3c-0.2,0.1-0.4,0-0.5-0.1l-3.3-1.9l-0.5,1l0.4,1.4
		c0.1,0.2,0,0.4-0.1,0.6c-0.1,0.2-0.3,0.3-0.4,0.4c-0.2,0.1-0.4,0-0.6-0.1c-0.2-0.1-0.3-0.2-0.4-0.4l-2.3-7.9
		c-0.1-0.2,0-0.4,0.1-0.6c0.1-0.2,0.2-0.3,0.4-0.4c0.2-0.1,0.4,0,0.6,0.1c0.2,0.1,0.3,0.2,0.4,0.4l1.4,4.6l1.8-3.6
		c0.1-0.2,0.2-0.3,0.4-0.3c0.2-0.1,0.4,0,0.5,0.1c0.2,0.1,0.3,0.2,0.3,0.4c0,0.2,0,0.3,0,0.5l-1.4,2.7l3.4,1.9
		C60.8,128.8,60.9,128.9,61,129.1z"/>
	<path class="st17" d="M63.6,121.5c0.8-0.2,1.6-0.1,2.5,0.3c0.9,0.4,1.5,1.1,1.7,2.1c0.1,0.5-0.1,0.8-0.6,1l-4.3,1.3
		c0.2,0.5,0.6,0.8,1,1c0.5,0.2,0.9,0.2,1.4,0.1c0.5-0.2,0.9-0.4,1.2-0.8c0.1-0.1,0.3-0.2,0.4-0.3c0.2-0.1,0.4,0,0.5,0
		c0.1,0.1,0.2,0.2,0.3,0.4c0.1,0.2,0,0.5-0.1,0.7c-0.5,0.6-1.1,1-1.9,1.2c-0.4,0.1-0.8,0.1-1.2,0.1c-0.4,0-0.9-0.1-1.3-0.3
		c-0.4-0.2-0.8-0.5-1.2-0.8c-0.4-0.4-0.6-0.9-0.8-1.4c-0.2-0.6-0.2-1.1-0.1-1.6c0.1-0.5,0.3-1,0.5-1.4c0.3-0.4,0.6-0.7,0.9-1
		C62.9,121.8,63.3,121.6,63.6,121.5z M64,122.7c-0.4,0.1-0.8,0.4-1.1,0.8c-0.3,0.4-0.4,0.8-0.3,1.4l3.7-1.1c-0.2-0.5-0.6-0.8-1-1
		C64.9,122.6,64.4,122.6,64,122.7z"/>
	<path class="st17" d="M72.7,125c0.1-0.1,0.3-0.1,0.5,0c0.2,0.1,0.3,0.2,0.3,0.4c0.1,0.5-0.2,0.8-1.1,1.1c-0.5,0.1-0.9,0.1-1.3,0
		c-0.4-0.2-0.7-0.6-0.9-1.3l-1.1-3.8l-0.4,0.1c-0.2,0.1-0.3,0-0.5-0.1c-0.2-0.1-0.3-0.2-0.3-0.4c0-0.2,0-0.3,0.1-0.5
		c0.1-0.2,0.2-0.3,0.4-0.3l0.4-0.1l-0.2-0.5c-0.1-0.2,0-0.4,0.1-0.6c0.1-0.2,0.3-0.3,0.4-0.4s0.4,0,0.6,0.1c0.2,0.1,0.3,0.2,0.4,0.4
		l0.2,0.5l0.9-0.3c0.2-0.1,0.3,0,0.5,0.1c0.2,0.1,0.3,0.2,0.3,0.4c0.1,0.2,0,0.3-0.1,0.5c-0.1,0.2-0.2,0.3-0.4,0.3l-0.9,0.3l1.1,3.9
		c0.1,0.4,0.3,0.5,0.6,0.4C72.4,125.1,72.6,125.1,72.7,125z"/>
	<path class="st17" d="M73.9,117.3c-0.1,0.2-0.3,0.3-0.5,0.4c-0.2,0.1-0.4,0-0.6-0.1c-0.2-0.1-0.3-0.3-0.4-0.5
		c-0.1-0.2,0-0.4,0.1-0.6c0.1-0.2,0.3-0.3,0.5-0.4c0.2-0.1,0.4,0,0.6,0.1c0.2,0.1,0.3,0.3,0.4,0.5C74,116.9,74,117.1,73.9,117.3z
		 M73.2,118.9c0.1-0.2,0.3-0.3,0.5-0.4c0.2-0.1,0.4,0,0.6,0.1c0.2,0.1,0.3,0.3,0.4,0.5l1.6,5.4c0.1,0.2,0,0.4-0.1,0.6
		c-0.1,0.2-0.3,0.3-0.5,0.4c-0.2,0.1-0.4,0-0.6-0.1c-0.2-0.1-0.3-0.3-0.4-0.5l-1.6-5.4C73.1,119.3,73.1,119.1,73.2,118.9z"/>
	<path class="st17" d="M79.7,116.8c0.8-0.2,1.5-0.2,2.2,0.2c0.7,0.3,1.1,1,1.4,2l0.9,3.2c0.1,0.2,0,0.4-0.1,0.6
		c-0.1,0.2-0.2,0.3-0.4,0.4s-0.4,0-0.6-0.1c-0.2-0.1-0.3-0.2-0.4-0.4l-0.9-3.1c-0.4-1.2-1-1.7-2-1.4c-0.5,0.2-0.9,0.5-1.2,1
		c-0.3,0.5-0.4,0.9-0.3,1.3l1,3.3c0.1,0.2,0,0.4-0.1,0.6c-0.1,0.2-0.2,0.3-0.4,0.4s-0.4,0-0.6-0.1c-0.2-0.1-0.3-0.2-0.4-0.4
		l-1.6-5.5c-0.1-0.2,0-0.4,0.1-0.6c0.1-0.2,0.2-0.3,0.4-0.4c0.2-0.1,0.4,0,0.6,0.1c0.2,0.1,0.3,0.3,0.4,0.4l0.2,0.8
		c0-0.3,0.1-0.7,0.4-1.2C78.6,117.3,79,117,79.7,116.8z"/>
	<path class="st17" d="M89.1,114.2c0.1-0.2,0.3-0.3,0.4-0.4c0.2-0.1,0.4,0,0.6,0.1c0.2,0.1,0.3,0.2,0.4,0.4l1.8,6.2
		c0.1,0.5,0.2,0.9,0.1,1.4c-0.1,0.4-0.3,0.8-0.6,1.1c-0.3,0.3-0.6,0.5-0.9,0.7c-0.3,0.2-0.6,0.3-1,0.4c-0.6,0.2-1.2,0.2-1.9,0.1
		c-0.3,0-0.4-0.2-0.5-0.4c0-0.2,0-0.3,0-0.5s0.2-0.2,0.4-0.3c0.1,0,0.1,0,0.2,0c0.5,0,0.9,0,1.4-0.2c0.5-0.2,0.9-0.4,1.1-0.8
		c0.2-0.4,0.3-0.8,0.2-1.2l-0.3-1.1c0.1,0.3-0.1,0.6-0.4,1c-0.3,0.4-0.8,0.6-1.3,0.8c-0.4,0.1-0.8,0.1-1.2,0.1
		c-0.4,0-0.8-0.2-1.2-0.3c-0.4-0.2-0.8-0.5-1.1-0.9s-0.6-0.9-0.7-1.4c-0.2-0.6-0.2-1.1-0.2-1.6c0.1-0.5,0.2-1,0.4-1.3
		c0.2-0.4,0.5-0.7,0.8-0.9s0.7-0.4,1-0.5c0.9-0.3,1.7-0.2,2.3,0.4l-0.1-0.2C89,114.6,89,114.4,89.1,114.2z M88.7,120.4
		c0.5-0.2,0.9-0.5,1.2-1c0.3-0.5,0.3-1.1,0.1-1.8c-0.2-0.7-0.6-1.3-1.1-1.5c-0.5-0.3-1-0.3-1.5-0.2c-0.5,0.1-0.9,0.5-1.2,1
		c-0.3,0.5-0.3,1.1-0.1,1.8c0.2,0.7,0.6,1.2,1.1,1.5C87.6,120.4,88.1,120.5,88.7,120.4z"/>
</g>
<g>
	<g>
		<path class="st11" d="M199.2,56.8c1.2,0.1,2.2,0.6,2.9,1.3c0.7,0.7,1,1.6,0.9,2.6c-0.1,1-0.6,1.8-1.4,2.4
			c-0.8,0.6-1.8,0.8-3.1,0.6l-2.1-0.2l-0.4,3.6c0,0.2-0.1,0.5-0.3,0.6c-0.2,0.2-0.4,0.2-0.7,0.2c-0.3,0-0.5-0.1-0.6-0.3
			c-0.2-0.2-0.2-0.4-0.2-0.7l1-9.5c0-0.3,0.2-0.5,0.4-0.7c0.2-0.2,0.5-0.2,0.7-0.2L199.2,56.8z M198.5,62.1c1.6,0.2,2.5-0.4,2.6-1.6
			c0.1-0.6-0.1-1.1-0.5-1.5c-0.4-0.4-1-0.6-1.7-0.7l-2.1-0.2l-0.4,3.8L198.5,62.1z"/>
		<path class="st11" d="M205.4,57.6c0.2-0.2,0.4-0.2,0.7-0.2c0.2,0,0.5,0.1,0.6,0.3c0.2,0.2,0.2,0.4,0.2,0.7l-1,9.7
			c0,0.2-0.1,0.5-0.3,0.6c-0.2,0.2-0.4,0.2-0.7,0.2c-0.2,0-0.5-0.1-0.6-0.3s-0.2-0.4-0.2-0.7l1-9.7C205.1,58,205.2,57.8,205.4,57.6z
			"/>
		<path class="st11" d="M212.3,61c1.2,0.1,2,0.6,2.4,1.4l0-0.3c0-0.2,0.1-0.4,0.3-0.6c0.2-0.2,0.4-0.2,0.7-0.2
			c0.2,0,0.4,0.1,0.6,0.3c0.2,0.2,0.2,0.4,0.2,0.7l-0.7,6.8c0,0.2-0.1,0.4-0.3,0.6c-0.2,0.2-0.4,0.2-0.7,0.2c-0.2,0-0.4-0.1-0.6-0.3
			s-0.2-0.4-0.2-0.7l0.1-0.6c-0.1,0.4-0.4,0.7-0.9,0.9c-0.5,0.3-1.1,0.4-1.8,0.3c-0.5,0-0.9-0.2-1.3-0.4c-0.4-0.2-0.8-0.5-1.2-0.9
			s-0.6-0.9-0.8-1.5c-0.2-0.6-0.2-1.2-0.2-1.9c0.1-0.7,0.3-1.3,0.6-1.8c0.3-0.5,0.7-1,1.1-1.3c0.4-0.3,0.9-0.5,1.4-0.7
			C211.4,61,211.9,61,212.3,61z M212.4,62.6c-0.6-0.1-1.2,0.1-1.7,0.6c-0.5,0.4-0.9,1.1-0.9,1.9c-0.1,0.9,0.1,1.6,0.5,2.1
			c0.4,0.6,1,0.9,1.6,0.9c0.7,0.1,1.2-0.1,1.8-0.5c0.5-0.4,0.8-1.1,0.9-2c0.1-0.9-0.1-1.6-0.5-2.2C213.6,62.9,213,62.6,212.4,62.6z"
			/>
		<path class="st11" d="M223,62.2c1,0.1,1.8,0.5,2.4,1.2c0.6,0.7,0.8,1.6,0.7,2.9l-0.4,4c0,0.2-0.1,0.4-0.3,0.6
			c-0.2,0.2-0.4,0.2-0.7,0.2c-0.2,0-0.4-0.1-0.6-0.3c-0.2-0.2-0.2-0.4-0.2-0.6l0.4-3.9c0.2-1.5-0.4-2.3-1.6-2.4
			c-0.6-0.1-1.2,0.1-1.7,0.6c-0.5,0.4-0.8,0.9-0.9,1.3l-0.4,4c0,0.2-0.1,0.4-0.3,0.6c-0.2,0.2-0.4,0.2-0.7,0.2
			c-0.2,0-0.4-0.1-0.6-0.3c-0.2-0.2-0.2-0.4-0.2-0.6l0.7-6.8c0-0.2,0.1-0.4,0.3-0.6c0.2-0.2,0.4-0.2,0.7-0.2c0.2,0,0.4,0.1,0.6,0.3
			c0.2,0.2,0.2,0.4,0.2,0.6l-0.1,1c0.1-0.4,0.4-0.8,0.9-1.1C221.6,62.2,222.3,62.1,223,62.2z"/>
		<path class="st11" d="M230.1,61.5c-0.2,0.2-0.4,0.2-0.7,0.2c-0.2,0-0.5-0.1-0.6-0.3c-0.2-0.2-0.2-0.4-0.2-0.7
			c0-0.2,0.1-0.5,0.3-0.6c0.2-0.2,0.4-0.2,0.7-0.2c0.2,0,0.5,0.1,0.6,0.3c0.2,0.2,0.2,0.4,0.2,0.7C230.4,61.2,230.3,61.4,230.1,61.5
			z M228.6,63.1c0.2-0.2,0.4-0.2,0.7-0.2s0.5,0.1,0.6,0.3c0.2,0.2,0.2,0.4,0.2,0.7l-0.7,6.7c0,0.2-0.1,0.5-0.3,0.6
			c-0.2,0.2-0.4,0.2-0.7,0.2s-0.5-0.1-0.6-0.3c-0.2-0.2-0.2-0.4-0.2-0.7l0.7-6.7C228.3,63.4,228.4,63.2,228.6,63.1z"/>
		<path class="st11" d="M237.4,61.3c0.2,0.2,0.3,0.4,0.3,0.6c0,0.2-0.1,0.4-0.3,0.5c-0.2,0.1-0.3,0.2-0.5,0.2
			c-0.1,0-0.2-0.1-0.3-0.1c-0.4-0.2-0.7-0.4-1.1-0.4c-0.4,0-0.6,0-0.8,0.2c-0.1,0.2-0.2,0.4-0.3,0.8l0,0.4l1.2,0.1
			c0.2,0,0.4,0.1,0.5,0.3c0.1,0.2,0.2,0.4,0.2,0.6c0,0.2-0.1,0.4-0.3,0.5c-0.2,0.1-0.4,0.2-0.6,0.2l-1.2-0.1l-0.6,6.1
			c0,0.2-0.1,0.4-0.3,0.6c-0.2,0.2-0.4,0.2-0.7,0.2c-0.2,0-0.4-0.1-0.6-0.3c-0.2-0.2-0.2-0.4-0.2-0.7l0.6-6.1l-0.3,0
			c-0.2,0-0.4-0.1-0.5-0.3c-0.1-0.2-0.2-0.4-0.2-0.6c0-0.2,0.1-0.4,0.3-0.5c0.2-0.1,0.4-0.2,0.6-0.2l0.3,0l0-0.5
			c0.1-0.5,0.2-0.9,0.4-1.3c0.2-0.3,0.5-0.6,0.8-0.7s0.6-0.2,0.9-0.3c0.3,0,0.6,0,0.9,0C236.3,60.6,236.9,60.8,237.4,61.3z"/>
		<path class="st11" d="M240.5,62.6c-0.2,0.2-0.4,0.2-0.7,0.2c-0.2,0-0.5-0.1-0.6-0.3c-0.2-0.2-0.2-0.4-0.2-0.7
			c0-0.2,0.1-0.5,0.3-0.6c0.2-0.2,0.4-0.2,0.7-0.2c0.2,0,0.5,0.1,0.6,0.3c0.2,0.2,0.2,0.4,0.2,0.7C240.8,62.3,240.7,62.5,240.5,62.6
			z M239.1,64.2c0.2-0.2,0.4-0.2,0.7-0.2c0.2,0,0.5,0.1,0.6,0.3c0.2,0.2,0.2,0.4,0.2,0.7l-0.7,6.7c0,0.2-0.1,0.5-0.3,0.6
			c-0.2,0.2-0.4,0.2-0.7,0.2c-0.2,0-0.5-0.1-0.6-0.3c-0.2-0.2-0.2-0.4-0.2-0.7l0.7-6.7C238.8,64.5,238.9,64.3,239.1,64.2z"/>
		<path class="st11" d="M246.6,64.6c1,0.1,1.8,0.5,2.5,1.2c0.3,0.3,0.4,0.5,0.4,0.8c0,0.2-0.1,0.4-0.3,0.5c-0.2,0.1-0.4,0.2-0.6,0.2
			s-0.4-0.1-0.5-0.3c-0.4-0.5-0.9-0.8-1.6-0.9c-0.6-0.1-1.2,0.1-1.8,0.5c-0.5,0.4-0.9,1.1-0.9,2c-0.1,0.9,0.1,1.6,0.5,2.1
			c0.4,0.5,1,0.8,1.6,0.9c0.7,0.1,1.2-0.1,1.7-0.5c0.2-0.1,0.4-0.2,0.6-0.2c0.2,0,0.4,0.1,0.5,0.3c0.1,0.2,0.2,0.4,0.2,0.6
			c0,0.2-0.2,0.5-0.5,0.7c-0.8,0.6-1.7,0.8-2.7,0.7c-1-0.1-1.9-0.6-2.7-1.4c-0.8-0.9-1.1-2-1-3.3c0.1-0.7,0.3-1.3,0.6-1.9
			c0.3-0.5,0.7-1,1.2-1.2c0.5-0.3,0.9-0.5,1.4-0.6C245.7,64.6,246.2,64.6,246.6,64.6z"/>
		<path class="st11" d="M254.9,65.5c1.2,0.1,2,0.6,2.4,1.4l0-0.3c0-0.2,0.1-0.4,0.3-0.6c0.2-0.2,0.4-0.2,0.7-0.2
			c0.2,0,0.4,0.1,0.6,0.3c0.2,0.2,0.2,0.4,0.2,0.7l-0.7,6.8c0,0.2-0.1,0.4-0.3,0.6c-0.2,0.2-0.4,0.2-0.7,0.2c-0.2,0-0.4-0.1-0.6-0.3
			c-0.2-0.2-0.2-0.4-0.2-0.7l0.1-0.6c-0.1,0.4-0.4,0.7-0.9,0.9c-0.5,0.3-1.1,0.4-1.8,0.3c-0.5,0-0.9-0.2-1.3-0.4
			c-0.4-0.2-0.8-0.5-1.2-0.9c-0.4-0.4-0.6-0.9-0.8-1.5c-0.2-0.6-0.2-1.2-0.2-1.9c0.1-0.7,0.3-1.3,0.6-1.8c0.3-0.5,0.7-1,1.1-1.3
			s0.9-0.5,1.4-0.7C254,65.5,254.4,65.4,254.9,65.5z M255,67.1c-0.6-0.1-1.2,0.1-1.7,0.6c-0.5,0.4-0.9,1.1-0.9,1.9
			c-0.1,0.9,0.1,1.6,0.5,2.1c0.4,0.6,1,0.9,1.6,0.9c0.7,0.1,1.2-0.1,1.8-0.5c0.5-0.4,0.8-1.1,0.9-2c0.1-0.9-0.1-1.6-0.5-2.2
			C256.2,67.4,255.6,67.1,255,67.1z"/>
		<path class="st11" d="M265.1,66.6c1,0.1,1.8,0.5,2.5,1.2c0.3,0.3,0.4,0.5,0.4,0.8c0,0.2-0.1,0.4-0.3,0.5c-0.2,0.1-0.4,0.2-0.6,0.2
			c-0.2,0-0.4-0.1-0.5-0.3c-0.4-0.5-0.9-0.8-1.6-0.9c-0.6-0.1-1.2,0.1-1.8,0.5c-0.5,0.4-0.9,1.1-0.9,2c-0.1,0.9,0.1,1.6,0.5,2.1
			c0.4,0.5,1,0.8,1.6,0.9c0.7,0.1,1.2-0.1,1.7-0.5c0.2-0.1,0.4-0.2,0.6-0.2c0.2,0,0.4,0.1,0.5,0.3c0.1,0.2,0.2,0.4,0.2,0.6
			c0,0.2-0.2,0.5-0.5,0.7c-0.8,0.6-1.7,0.8-2.7,0.7c-1-0.1-1.9-0.6-2.7-1.4c-0.8-0.9-1.1-2-1-3.3c0.1-0.7,0.3-1.3,0.6-1.9
			c0.3-0.5,0.7-1,1.2-1.2s0.9-0.5,1.4-0.6C264.2,66.6,264.6,66.5,265.1,66.6z"/>
		<path class="st11" d="M271.7,65.9c-0.2,0.2-0.4,0.2-0.7,0.2c-0.2,0-0.5-0.1-0.6-0.3c-0.2-0.2-0.2-0.4-0.2-0.7
			c0-0.2,0.1-0.5,0.3-0.6c0.2-0.2,0.4-0.2,0.7-0.2c0.2,0,0.5,0.1,0.6,0.3c0.2,0.2,0.2,0.4,0.2,0.7C272,65.5,271.9,65.7,271.7,65.9z
			 M270.2,67.4c0.2-0.2,0.4-0.2,0.7-0.2c0.2,0,0.5,0.1,0.6,0.3c0.2,0.2,0.2,0.4,0.2,0.7L271,75c0,0.2-0.1,0.5-0.3,0.6
			c-0.2,0.2-0.4,0.2-0.7,0.2c-0.2,0-0.5-0.1-0.6-0.3s-0.2-0.4-0.2-0.7l0.7-6.7C269.9,67.8,270,67.6,270.2,67.4z"/>
		<path class="st11" d="M276.3,68c0.5-0.1,1-0.2,1.4-0.1c0.5,0,0.9,0.2,1.4,0.4c0.5,0.2,0.9,0.5,1.3,0.9c0.4,0.4,0.7,0.9,0.9,1.5
			c0.2,0.6,0.3,1.2,0.2,1.9c-0.1,0.7-0.3,1.3-0.6,1.9c-0.3,0.5-0.7,1-1.2,1.2c-0.5,0.3-0.9,0.5-1.4,0.6c-0.5,0.1-1,0.2-1.4,0.1
			c-0.5,0-0.9-0.2-1.4-0.4c-0.5-0.2-0.9-0.5-1.3-0.9c-0.4-0.4-0.7-0.9-0.9-1.5c-0.2-0.6-0.3-1.2-0.2-1.9c0.1-0.7,0.3-1.3,0.6-1.8
			c0.3-0.5,0.7-1,1.2-1.3C275.3,68.4,275.8,68.2,276.3,68z M279.1,70.4c-0.4-0.5-1-0.8-1.6-0.9c-0.6-0.1-1.2,0.1-1.8,0.6
			c-0.5,0.4-0.9,1.1-1,2c-0.1,0.9,0.1,1.6,0.5,2.1c0.4,0.5,1,0.8,1.6,0.9c0.6,0.1,1.2-0.1,1.8-0.6c0.5-0.4,0.9-1.1,1-1.9
			C279.8,71.6,279.6,70.9,279.1,70.4z M278.9,64c0.3,0,0.5,0.1,0.6,0.3c0.2,0.2,0.2,0.4,0.2,0.7c0,0.2-0.1,0.4-0.3,0.6l-1.5,1.5
			c-0.1,0.1-0.3,0.2-0.5,0.2c-0.2,0-0.4-0.1-0.5-0.3c-0.1-0.2-0.1-0.4,0-0.6l1-1.9C278.2,64.1,278.5,63.9,278.9,64z"/>
		<path class="st11" d="M288,69c1,0.1,1.8,0.5,2.4,1.2c0.6,0.7,0.8,1.6,0.7,2.9l-0.4,4c0,0.2-0.1,0.4-0.3,0.6
			c-0.2,0.2-0.4,0.2-0.7,0.2c-0.2,0-0.4-0.1-0.6-0.3c-0.2-0.2-0.2-0.4-0.2-0.6l0.4-3.9c0.2-1.5-0.4-2.3-1.6-2.4
			c-0.6-0.1-1.2,0.1-1.7,0.6c-0.5,0.4-0.8,0.9-0.9,1.3l-0.4,4c0,0.2-0.1,0.4-0.3,0.6c-0.2,0.2-0.4,0.2-0.7,0.2
			c-0.2,0-0.4-0.1-0.6-0.3c-0.2-0.2-0.2-0.4-0.2-0.6l0.7-6.8c0-0.2,0.1-0.4,0.3-0.6c0.2-0.2,0.4-0.2,0.7-0.2c0.2,0,0.4,0.1,0.6,0.3
			c0.2,0.2,0.2,0.4,0.2,0.6l-0.1,1c0.1-0.4,0.4-0.8,0.9-1.1C286.6,69.1,287.2,68.9,288,69z"/>
	</g>
</g>
<g>
	<g>
		<path class="st11" d="M235.5,247.1c1.1,0.5,1.8,1.1,2.2,2c0.4,0.8,0.4,1.7,0,2.6c-0.4,0.9-1,1.4-1.9,1.7c-0.9,0.3-1.9,0.1-2.9-0.3
			l-1.8-0.8l-1.4,3c-0.1,0.2-0.3,0.4-0.5,0.4c-0.2,0.1-0.4,0.1-0.7,0c-0.2-0.1-0.4-0.3-0.4-0.5c-0.1-0.2-0.1-0.4,0-0.7l3.7-8.1
			c0.1-0.2,0.3-0.4,0.5-0.5c0.2-0.1,0.5-0.1,0.7,0L235.5,247.1z M233.3,251.6c1.4,0.6,2.3,0.4,2.8-0.7c0.2-0.5,0.2-1,0-1.5
			c-0.2-0.4-0.7-0.8-1.3-1.1l-1.7-0.8l-1.5,3.2L233.3,251.6z"/>
		<path class="st11" d="M243.4,253.6c0.2,0.1,0.4,0.3,0.5,0.5c0.1,0.2,0.1,0.4,0,0.6c-0.1,0.2-0.2,0.3-0.5,0.4
			c-0.2,0.1-0.4,0.1-0.6,0l-0.2-0.1c-1.1-0.5-2.1-0.3-3,0.5l-1.6,3.6c-0.1,0.2-0.3,0.4-0.5,0.4c-0.2,0.1-0.4,0.1-0.6,0
			c-0.2-0.1-0.4-0.3-0.4-0.5c-0.1-0.2-0.1-0.4,0-0.6l2.6-5.8c0.1-0.2,0.2-0.3,0.5-0.4c0.2-0.1,0.4-0.1,0.6,0
			c0.2,0.1,0.4,0.3,0.4,0.5c0.1,0.2,0.1,0.4,0,0.6l-0.3,0.6c0.5-0.3,1-0.4,1.5-0.5C242.4,253.3,242.9,253.4,243.4,253.6z"/>
		<path class="st11" d="M250.1,257.6c0.1-0.2,0.2-0.3,0.5-0.4c0.2-0.1,0.4-0.1,0.6,0s0.3,0.2,0.4,0.5c0.1,0.2,0.1,0.4,0,0.6
			l-2.6,5.7c-0.1,0.2-0.2,0.3-0.5,0.4c-0.2,0.1-0.4,0.1-0.6,0s-0.3-0.2-0.4-0.5c-0.1-0.2-0.1-0.4,0-0.6l0.4-0.9
			c-0.3,0.3-0.7,0.6-1.3,0.8c-0.6,0.2-1.2,0.1-1.8-0.1c-0.8-0.4-1.4-0.9-1.6-1.7c-0.3-0.7-0.2-1.6,0.3-2.7l1.6-3.4
			c0.1-0.2,0.2-0.3,0.5-0.4c0.2-0.1,0.4-0.1,0.6,0s0.3,0.2,0.4,0.5c0.1,0.2,0.1,0.4,0,0.6l-1.5,3.4c-0.3,0.6-0.4,1.2-0.2,1.6
			c0.1,0.4,0.4,0.7,0.8,0.9c0.6,0.3,1.1,0.3,1.8,0c0.6-0.3,1.1-0.6,1.3-1L250.1,257.6z"/>
		<path class="st11" d="M257,259.8c0.8,0.4,1.5,1.1,1.9,2c0.4,1,0.4,2,0,3c-0.2,0.5-0.7,0.7-1.3,0.4l-4.6-2.1
			c-0.2,0.6-0.1,1.1,0.1,1.6c0.3,0.5,0.6,0.9,1.1,1.1c0.6,0.3,1.1,0.3,1.6,0.2c0.2,0,0.4,0,0.5,0c0.2,0.1,0.3,0.2,0.4,0.4
			c0.1,0.2,0,0.4,0,0.6c-0.1,0.3-0.3,0.4-0.6,0.4c-0.8,0.1-1.6,0-2.5-0.4c-0.4-0.2-0.8-0.4-1.1-0.8c-0.3-0.3-0.6-0.7-0.9-1.2
			c-0.2-0.5-0.4-1-0.4-1.6c0-0.6,0.1-1.2,0.4-1.8c0.3-0.6,0.6-1.1,1.1-1.5c0.5-0.4,0.9-0.6,1.4-0.8c0.5-0.1,1-0.2,1.5-0.1
			C256.1,259.5,256.6,259.6,257,259.8z M256.4,261.1c-0.4-0.2-0.9-0.3-1.5-0.1c-0.5,0.1-1,0.4-1.3,0.9l3.9,1.8
			c0.2-0.6,0.1-1.1-0.1-1.6C257.1,261.7,256.8,261.3,256.4,261.1z"/>
		<path class="st11" d="M265.5,263.7c0.4,0.2,0.7,0.4,1.1,0.8c0.3,0.3,0.6,0.7,0.8,1.2c0.2,0.4,0.3,1,0.3,1.5c0,0.6-0.2,1.2-0.4,1.7
			c-0.3,0.6-0.6,1.1-1,1.5c-0.4,0.4-0.9,0.6-1.3,0.8c-0.5,0.1-0.9,0.2-1.4,0.2c-0.5,0-0.9-0.1-1.3-0.3c-0.5-0.3-1-0.6-1.3-1.1
			c-0.3-0.5-0.4-0.9-0.3-1.2l-0.2,0.5c-0.1,0.2-0.3,0.4-0.5,0.4c-0.2,0.1-0.4,0.1-0.6,0c-0.2-0.1-0.4-0.3-0.4-0.5
			c-0.1-0.2-0.1-0.4,0-0.6l3.8-8.3c0.1-0.2,0.3-0.4,0.5-0.4s0.4-0.1,0.6,0c0.2,0.1,0.4,0.3,0.4,0.5c0.1,0.2,0.1,0.4,0,0.6l-1.2,2.7
			C263.7,263.3,264.5,263.3,265.5,263.7z M262.6,269.7c0.5,0.2,1.1,0.2,1.7,0c0.6-0.2,1.1-0.7,1.4-1.4c0.3-0.7,0.4-1.4,0.2-2
			c-0.2-0.6-0.6-1-1.1-1.3c-0.6-0.3-1.1-0.3-1.7-0.1c-0.6,0.2-1,0.7-1.4,1.5c-0.4,0.8-0.4,1.5-0.2,2
			C261.7,269,262,269.4,262.6,269.7z"/>
		<path class="st11" d="M273.3,267.3c1,0.5,1.6,1.1,1.7,2l0.1-0.2c0.1-0.2,0.3-0.4,0.5-0.4c0.2-0.1,0.4-0.1,0.6,0
			c0.2,0.1,0.4,0.3,0.4,0.5c0.1,0.2,0.1,0.4,0,0.6l-2.7,5.8c-0.1,0.2-0.3,0.4-0.5,0.4c-0.2,0.1-0.4,0.1-0.6,0
			c-0.2-0.1-0.4-0.3-0.4-0.5s-0.1-0.4,0-0.6l0.2-0.5c-0.2,0.3-0.5,0.5-1.1,0.5c-0.6,0.1-1.1,0-1.7-0.3c-0.4-0.2-0.7-0.4-1.1-0.8
			c-0.3-0.3-0.6-0.7-0.8-1.2c-0.2-0.4-0.3-1-0.3-1.5c0-0.6,0.2-1.2,0.4-1.8c0.3-0.6,0.6-1.1,1-1.5c0.4-0.4,0.9-0.6,1.3-0.8
			c0.5-0.1,0.9-0.2,1.4-0.2C272.4,267,272.9,267.1,273.3,267.3z M272.8,268.7c-0.5-0.2-1.1-0.2-1.7,0c-0.6,0.2-1.1,0.7-1.4,1.4
			c-0.3,0.7-0.4,1.4-0.2,2c0.2,0.6,0.6,1,1.1,1.3c0.6,0.3,1.1,0.3,1.7,0.1c0.6-0.2,1.1-0.7,1.4-1.5c0.4-0.8,0.4-1.5,0.2-2
			C273.8,269.3,273.4,268.9,272.8,268.7z"/>
		<path class="st11" d="M281,270.8c0.6,0.3,1,0.5,1.3,0.8c0.3,0.3,0.5,0.6,0.6,1.1c0.1,0.2,0.1,0.4,0,0.6c-0.1,0.2-0.2,0.3-0.4,0.4
			c-0.2,0.1-0.4,0.1-0.6,0c-0.2-0.1-0.4-0.3-0.4-0.5c-0.1-0.5-0.4-0.8-0.9-1c-0.3-0.1-0.6-0.2-0.8-0.1c-0.3,0.1-0.4,0.2-0.5,0.4
			c-0.2,0.4,0,0.8,0.4,1.1l0.9,0.7c0.6,0.5,1,1,1.2,1.4c0.2,0.5,0.2,1-0.1,1.6c-0.3,0.6-0.8,1-1.6,1.1c-0.8,0.1-1.5,0-2.2-0.3
			c-0.5-0.2-0.9-0.5-1.3-0.9c-0.3-0.4-0.6-0.8-0.7-1.2c-0.1-0.3-0.1-0.5,0-0.7c0.1-0.2,0.2-0.3,0.4-0.4c0.2-0.1,0.4-0.1,0.6,0
			c0.2,0.1,0.4,0.3,0.4,0.5c0.1,0.6,0.5,1.1,1.2,1.4c0.3,0.2,0.7,0.2,1,0.2c0.3-0.1,0.5-0.2,0.6-0.4c0.2-0.4,0-0.8-0.4-1.3l-0.9-0.7
			c-0.6-0.5-1-1-1.2-1.5c-0.2-0.5-0.1-1,0.1-1.5c0.3-0.6,0.7-1,1.4-1.1S280.3,270.5,281,270.8z"/>
	</g>
</g>
<g>
	<path class="st18" d="M169.2,225.5c1.8-0.2,3.4,0.3,4.9,1.5c1.4,1.2,2.2,2.7,2.4,4.5c0.2,1.9-0.3,3.5-1.5,4.9
		c-1.2,1.4-2.7,2.2-4.5,2.4l-3.1,0.3c-0.3,0-0.6-0.1-0.9-0.3c-0.2-0.2-0.4-0.5-0.4-0.8l-1-10.9c0-0.3,0.1-0.6,0.3-0.9
		c0.2-0.2,0.5-0.4,0.8-0.4L169.2,225.5z M170.2,237c1.3-0.1,2.4-0.7,3.1-1.7s1.1-2.2,0.9-3.6c-0.1-1.4-0.6-2.5-1.6-3.3
		c-0.9-0.8-2-1.2-3.4-1.1l-2.1,0.2l0.8,9.6L170.2,237z"/>
	<path class="st18" d="M182.9,227.6c1.2-0.1,2.3,0.2,3.4,1c1.1,0.8,1.7,1.9,1.8,3.3c0.1,0.7-0.3,1.1-1.1,1.2l-6.3,0.6
		c0.2,0.8,0.6,1.3,1.2,1.7c0.6,0.4,1.2,0.5,1.9,0.5c0.8-0.1,1.4-0.3,1.9-0.7c0.2-0.2,0.4-0.3,0.6-0.3c0.3,0,0.5,0,0.7,0.2
		c0.2,0.2,0.3,0.4,0.3,0.7c0,0.4-0.1,0.6-0.4,0.9c-0.8,0.7-1.8,1-3,1.1c-0.5,0-1.1,0-1.7-0.2c-0.6-0.2-1.1-0.4-1.7-0.8
		c-0.5-0.4-1-0.8-1.4-1.5c-0.4-0.6-0.6-1.4-0.7-2.2c-0.1-0.8,0-1.6,0.3-2.3c0.3-0.7,0.6-1.3,1.1-1.7c0.5-0.4,1-0.8,1.5-1.1
		C181.8,227.8,182.3,227.7,182.9,227.6z M183,229.5c-0.6,0.1-1.2,0.3-1.7,0.8c-0.5,0.5-0.8,1.1-0.9,1.8l5.4-0.5
		c-0.2-0.7-0.6-1.3-1.1-1.6C184.2,229.6,183.6,229.4,183,229.5z"/>
	<path class="st18" d="M192.7,226.8c0.8-0.1,1.4,0,1.9,0.1c0.5,0.1,0.9,0.4,1.3,0.8c0.2,0.2,0.3,0.4,0.3,0.6c0,0.3-0.1,0.5-0.2,0.7
		c-0.2,0.2-0.4,0.3-0.7,0.3c-0.3,0-0.6-0.1-0.8-0.3c-0.4-0.4-1-0.6-1.6-0.5c-0.4,0-0.7,0.2-1,0.4c-0.2,0.2-0.4,0.5-0.3,0.8
		c0,0.5,0.4,0.9,1.1,1l1.4,0.3c0.9,0.2,1.7,0.5,2.2,0.8c0.5,0.4,0.8,1,0.9,1.9c0.1,0.9-0.3,1.6-1,2.2c-0.8,0.6-1.6,1-2.6,1
		c-0.7,0.1-1.4,0-2-0.2c-0.6-0.2-1.1-0.5-1.5-0.9c-0.3-0.2-0.4-0.5-0.4-0.8c0-0.2,0-0.5,0.2-0.7c0.2-0.2,0.4-0.3,0.7-0.3
		c0.3,0,0.6,0.1,0.8,0.3c0.5,0.6,1.3,0.8,2.1,0.8c0.5,0,0.9-0.2,1.1-0.4c0.3-0.2,0.4-0.5,0.4-0.8c-0.1-0.6-0.5-1-1.3-1.1l-1.4-0.3
		c-1-0.2-1.7-0.5-2.2-0.9c-0.5-0.4-0.7-1-0.8-1.7c-0.1-0.8,0.2-1.5,0.9-2.1C191,227.2,191.8,226.8,192.7,226.8z"/>
	<path class="st18" d="M202.8,225.9c1.4-0.1,2.4,0.3,3.1,1.1l0-0.3c0-0.3,0.1-0.5,0.2-0.8c0.2-0.2,0.4-0.3,0.7-0.4
		c0.3,0,0.5,0.1,0.8,0.2c0.2,0.2,0.3,0.4,0.4,0.7l0.7,8c0,0.3-0.1,0.5-0.2,0.8c-0.2,0.2-0.4,0.3-0.7,0.4c-0.3,0-0.5-0.1-0.8-0.2
		c-0.2-0.2-0.3-0.4-0.4-0.7l-0.1-0.7c0,0.4-0.3,0.8-0.8,1.3c-0.6,0.4-1.2,0.7-2,0.7c-0.5,0-1.1,0-1.6-0.2c-0.6-0.2-1.1-0.4-1.6-0.8
		c-0.5-0.4-0.9-0.9-1.3-1.5c-0.3-0.6-0.6-1.4-0.6-2.2c-0.1-0.8,0-1.6,0.2-2.2c0.2-0.7,0.6-1.3,1-1.7c0.4-0.4,0.9-0.8,1.4-1.1
		C201.7,226.1,202.3,225.9,202.8,225.9z M203.2,227.7c-0.7,0.1-1.4,0.4-1.9,1c-0.5,0.6-0.7,1.4-0.7,2.4c0.1,1,0.4,1.8,1.1,2.3
		c0.6,0.5,1.3,0.8,2,0.7c0.8-0.1,1.4-0.4,1.9-1c0.5-0.6,0.7-1.4,0.6-2.5c-0.1-1.1-0.4-1.9-1-2.4C204.7,227.8,204,227.6,203.2,227.7z
		"/>
	<path class="st18" d="M215.7,224.8c0.3,0,0.6,0,0.8,0.2c0.2,0.2,0.3,0.4,0.4,0.7c0,0.3-0.1,0.5-0.2,0.7c-0.2,0.2-0.4,0.3-0.7,0.4
		l-0.3,0c-1.5,0.1-2.5,1-3,2.4l0.4,4.9c0,0.3-0.1,0.5-0.2,0.8c-0.2,0.2-0.4,0.3-0.7,0.4c-0.3,0-0.5-0.1-0.8-0.2s-0.3-0.4-0.4-0.7
		l-0.7-8c0-0.3,0.1-0.5,0.2-0.8c0.2-0.2,0.4-0.4,0.7-0.4c0.3,0,0.5,0.1,0.8,0.2c0.2,0.2,0.3,0.4,0.4,0.7l0.1,0.8
		c0.4-0.6,0.8-1.1,1.4-1.5C214.4,225.1,215,224.8,215.7,224.8z"/>
	<path class="st18" d="M223.9,224c0.3,0,0.6,0,0.8,0.2c0.2,0.2,0.3,0.4,0.4,0.7c0,0.3-0.1,0.5-0.2,0.7c-0.2,0.2-0.4,0.3-0.7,0.4
		l-0.3,0c-1.5,0.1-2.5,1-3,2.4l0.4,4.9c0,0.3-0.1,0.5-0.2,0.8c-0.2,0.2-0.4,0.3-0.7,0.4c-0.3,0-0.5-0.1-0.8-0.2s-0.3-0.4-0.4-0.7
		l-0.7-8c0-0.3,0.1-0.5,0.2-0.8c0.2-0.2,0.4-0.4,0.7-0.4c0.3,0,0.5,0.1,0.8,0.2c0.2,0.2,0.3,0.4,0.4,0.7l0.1,0.8
		c0.4-0.6,0.8-1.1,1.4-1.5C222.6,224.3,223.2,224.1,223.9,224z"/>
	<path class="st18" d="M229.2,223.9c0.5-0.3,1.1-0.4,1.6-0.5c0.5,0,1.1,0,1.7,0.2c0.6,0.2,1.1,0.4,1.7,0.8c0.5,0.4,1,0.9,1.4,1.5
		c0.4,0.6,0.6,1.4,0.7,2.2c0.1,0.8,0,1.6-0.3,2.3c-0.3,0.7-0.6,1.3-1.1,1.7c-0.5,0.4-1,0.8-1.5,1.1c-0.5,0.3-1.1,0.4-1.6,0.5
		c-0.5,0-1.1,0-1.7-0.2c-0.6-0.2-1.1-0.4-1.7-0.8c-0.5-0.4-1-0.8-1.4-1.5c-0.4-0.6-0.6-1.4-0.7-2.2c-0.1-0.8,0-1.6,0.3-2.3
		c0.3-0.7,0.6-1.3,1.1-1.7S228.7,224.1,229.2,223.9z M233,225.9c-0.6-0.5-1.3-0.7-2-0.7c-0.7,0.1-1.4,0.4-1.9,1
		c-0.5,0.6-0.8,1.4-0.7,2.5c0.1,1,0.4,1.8,1.1,2.3c0.6,0.5,1.3,0.7,2,0.7c0.7-0.1,1.4-0.4,1.9-1c0.5-0.6,0.8-1.4,0.7-2.4
		C234,227.2,233.7,226.4,233,225.9z"/>
	<path class="st18" d="M237.8,219.7c0.2-0.2,0.4-0.4,0.7-0.4s0.5,0.1,0.8,0.2c0.2,0.2,0.4,0.4,0.4,0.7l1,11.4c0,0.3-0.1,0.6-0.2,0.8
		c-0.2,0.2-0.4,0.4-0.7,0.4c-0.3,0-0.5-0.1-0.8-0.2c-0.2-0.2-0.4-0.4-0.4-0.7l-1-11.4C237.5,220.2,237.6,219.9,237.8,219.7z"/>
	<path class="st18" d="M242.4,219.3c0.2-0.2,0.4-0.4,0.7-0.4c0.3,0,0.5,0.1,0.8,0.2c0.2,0.2,0.4,0.4,0.4,0.7l1,11.4
		c0,0.3-0.1,0.6-0.2,0.8s-0.4,0.4-0.7,0.4c-0.3,0-0.6-0.1-0.8-0.2s-0.4-0.4-0.4-0.7l-1-11.4C242.1,219.7,242.2,219.5,242.4,219.3z"
		/>
	<path class="st18" d="M249.8,222.1c0.5-0.3,1.1-0.4,1.6-0.5c0.5,0,1.1,0,1.7,0.2c0.6,0.2,1.1,0.4,1.7,0.8c0.5,0.4,1,0.9,1.4,1.5
		c0.4,0.6,0.6,1.4,0.7,2.2c0.1,0.8,0,1.6-0.3,2.3c-0.3,0.7-0.6,1.3-1.1,1.7c-0.5,0.4-1,0.8-1.5,1.1c-0.5,0.3-1.1,0.4-1.6,0.5
		c-0.5,0-1.1,0-1.7-0.2c-0.6-0.2-1.1-0.4-1.7-0.8c-0.5-0.4-1-0.8-1.4-1.5c-0.4-0.6-0.6-1.4-0.7-2.2c-0.1-0.8,0-1.6,0.3-2.3
		c0.3-0.7,0.6-1.3,1.1-1.7C248.7,222.7,249.2,222.3,249.8,222.1z M253.6,224.1c-0.6-0.5-1.3-0.7-2-0.7c-0.7,0.1-1.4,0.4-1.9,1
		c-0.5,0.6-0.8,1.4-0.7,2.5c0.1,1,0.5,1.8,1.1,2.3c0.6,0.5,1.3,0.7,2,0.7c0.7-0.1,1.4-0.4,1.9-1c0.5-0.6,0.8-1.4,0.7-2.4
		C254.6,225.4,254.2,224.6,253.6,224.1z"/>
</g>
</svg>
