<?xml version="1.0" encoding="UTF-8"?><svg id="Capa_1" xmlns="http://www.w3.org/2000/svg" viewBox="0 0 110 78"><defs><style>.cls-1{fill:#72896a;}.cls-2{fill:#a3c69b;}</style></defs><g><path class="cls-2" d="M8.43,33.64c-1.62-.6-3.22-1.22-4.84-1.8-1.32-.48-2.24-1.32-2.58-2.7-.34-1.37,0-2.6,1.01-3.58,1.04-1,2.31-1.36,3.69-.89,2.14,.74,4.27,1.55,6.4,2.34,2.47,.91,4.94,1.82,7.4,2.73,.15,.06,.93,.35,1.02,.51-.36,.22-1.34-.2-1.71-.16-.5,0-.94,.22-1.39,.38-1.04,.38-2.08,.77-3.12,1.16-1.68,.6-3.36,1.23-5.03,1.84-.27,.1-.53,.29-.85,.15h0Z"/><path class="cls-1" d="M8.43,33.64c1.73-.63,5.44-1.9,5.87-2.08-.16,.83-.33,1.65-.46,2.48-.27,1.65-.55,3.3-.85,4.95-.06,.31-.03,.63-.03,.93-.05,.22-.25,.27-.42,.33-2.2,.83-4.41,1.64-6.62,2.45-.61,.23-1.25,.28-1.89,.08-1.88-.41-3.06-1.77-3.14-3.59-.08-1.73,1.01-3.16,2.75-3.76,1.61-.55,3.2-1.19,4.8-1.78h0Z"/><path class="cls-1" d="M12.42,50.88c-1.52,.57-3.05,1.15-4.57,1.71-.65,.24-1.29,.5-1.94,.71-2.02,.68-4.11-.3-4.8-2.23-.7-1.96,.27-4.02,2.27-4.78,1.65-.63,3.32-1.22,4.98-1.83,.12-.24,.37-.28,.59-.36,1.44-.54,2.88-1.06,4.32-1.6,.2-.07,.41-.2,.61,.01-.26,1.24-.45,2.49-.66,3.73-.27,1.54-.54,3.08-.78,4.63h0Z"/><path class="cls-1" d="M12.89,39.95c-.22-.46-.04-.92,.03-1.37,.33-1.97,.66-3.95,1-5.92,.07-.38,.14-.77,.37-1.09,1.47-.57,2.9-1.21,4.44-1.58-.47,2.44-.85,4.89-1.29,7.34-.07,.35,0,.72-.22,1.04-.57,.22-1.15,.44-1.73,.66-.02,.08-.08,.14-.15,.17-.72,.27-1.43,.54-2.16,.8-.1,.04-.22,.06-.31-.03h0Z"/><path class="cls-2" d="M12.89,39.95c.87-.31,1.74-.63,2.61-.93,.75,.42,1.58,.62,2.37,.94,.63,.25,2.01,.75,2.65,1-.2,.2-1.19-.12-1.43-.12-.63,.01-1.21,.23-1.79,.46-1,.35-1.97,.75-2.98,1.09-.16,.06-.31,.14-.5,.1-1.05,.27-2.03,.73-3.05,1.08-.81,.27-1.61,.6-2.42,.91-.94-.47-1.97-.76-2.95-1.14-.46-.18-.93-.36-1.39-.55,1.34,.16,2.5-.45,3.7-.87,1.66-.59,3.31-1.22,4.96-1.84,.07-.03,.13-.07,.2-.11h0Z"/><path class="cls-1" d="M13.83,42.49c1.13-.43,2.27-.87,3.4-1.3,.14,.17,.08,.36,.05,.54-.41,2.3-.8,4.6-1.19,6.9-.05,.31-.09,.62-.08,.93-1.2,.44-2.39,.88-3.59,1.32-.2-.57,.05-1.11,.13-1.65,.31-1.96,.66-3.92,1-5.88,.05-.31,.18-.59,.28-.88h0Z"/><path class="cls-1" d="M17.23,38.35c-.06-1.62,.75-3.13,.42-4.78-.19-.95,.12-1.86,.7-2.64,.2-.27,.05-.72,.38-.96,1.02-.23,1.54,.15,2.34,.47-.47,2.14-.76,4.32-1.15,6.48-.03,.17-.02,.35-.14,.49-.97,.36-1.71,.61-2.55,.94h0Z"/><path class="cls-1" d="M16.01,49.56c-.2-.1-.18-.23-.14-.43,.46-2.6,.91-5.2,1.36-7.81,0-.05,0-.09,0-.14,.58-.23,1.15-.47,1.79-.48,.16,.17,.14,.38,.1,.58-.43,2.5-.87,4.98-1.27,7.48,0,.05-.03,.08-.06,.13-.58,.27-1.17,.49-1.79,.66h0Z"/><path class="cls-1" d="M17.8,48.9c-.19-.48,.05-.93,.12-1.37,.34-2.09,.72-4.17,1.09-6.25,.03-.18,.02-.38,.03-.56,.74,.03,1.26,.12,1.8,.36-.28,1.76-.61,3.51-.91,5.27-.11,.63-.2,1.27-.33,1.9-.57,.29-1.2,.44-1.79,.66Z"/><path class="cls-1" d="M19.59,48.24c-.25-.3-.03-.61,.02-.89,.31-1.96,.67-3.92,1.01-5.87,.03-.16,.07-.31,.2-.4,.61,.27,1.13,.65,1.48,1.24-.28,1.69-.62,3.38-.85,5.07-.87,.48-1.21,.57-1.86,.86Z"/><path class="cls-1" d="M19.78,37.42c-.02-1,.29-1.96,.43-2.94,.18-1.19,.41-2.38,.59-3.58,.03-.2,.09-.36,.27-.46,.56,.27,1.02,.66,1.32,1.22-.33,1.62-.6,3.25-.85,4.88-.85,.54-1.03,.51-1.77,.87h0Z"/><path class="cls-1" d="M21.45,47.38c-.18-.35-.05-.7,.01-1.05,.22-1.22,.44-2.44,.65-3.67,.03-.14,.03-.28,.18-.35,.81,1.22,.91,2.49,.27,3.81-.25,.53-.62,.96-1.12,1.26Z"/><path class="cls-1" d="M21.54,36.55c-.22-.63,.09-1.22,.16-1.83,.1-.86,.29-1.71,.43-2.57,.03-.19,.08-.36,.26-.48,.77,1.26,.79,2.53,.1,3.82-.23,.43-.53,.8-.95,1.06Z"/></g><g><path class="cls-1" d="M26.05,32.23c.3-.63,.79-.89,1.5-.88,2.06,.02,4.11,0,6.17,.01,1.4,.01,2.66,.38,3.61,1.48,.62,.72,1.01,1.52,1.1,2.51,.1,1.19-.16,2.26-.92,3.15-.37,.43-.3,.58,.02,1,1.8,2.28,.94,5.57-1.69,6.75-.44,.19-.9,.26-1.35,.39h-7.47c-.5-.09-.86-.33-.96-.86v-.78c.24-.67,.57-.9,1.3-.91h6.42c.64,0,1.24-.16,1.67-.68,.46-.56,.61-1.2,.3-1.91s-.86-1.06-1.61-1.14c-.22-.02-.44,0-.64,0h-6.08c-.79,0-1.18-.29-1.36-1v-.69c.18-.72,.54-.99,1.35-1h6.51c.68,0,1.24-.26,1.64-.82,.73-1.05,.23-2.46-1-2.82-.28-.09-.57-.1-.86-.1h-6.34c-.71,0-1.06-.26-1.31-.91v-.78h.01Z"/><path class="cls-1" d="M55.86,46.64c-.49-.21-.79-.57-1.01-1.06-.28-.62-.61-1.22-.89-1.83-.11-.24-.24-.34-.52-.34h-7.34c-.28,0-.4,.1-.52,.34-.32,.68-.64,1.35-.99,2.02-.35,.71-1.01,.95-1.65,.63-.63-.3-.84-1-.5-1.7,.49-1,.97-2.01,1.47-2.99,.24-.49,.64-.71,1.2-.71h7.47c-.28-.56-.52-1.08-.78-1.59-1.01-2.04-2.03-4.09-3.05-6.13-.41-.84-.09-1.64,.74-1.86,.56-.15,1.1,.12,1.39,.71,1.08,2.19,2.17,4.37,3.26,6.56,.96,1.95,1.92,3.88,2.88,5.83,.54,1.08,.39,1.58-.64,2.14h-.52Z"/><path class="cls-1" d="M82.09,46.64c-.69-.21-1.39-.38-1.98-.84-.96-.77-1.64-1.7-1.78-2.97-.05-.41-.05-.83,0-1.23,.19-1.97,2.04-3.76,4.04-3.8,2.14-.05,4.28-.02,6.42-.01,.71,0,1.2,.54,1.2,1.22s-.51,1.22-1.24,1.22h-6.03c-1.17,0-2.07,.95-2.02,2.08,.04,1.02,.95,1.9,1.96,1.9,1.96,0,3.91,.04,5.86-.01,.77-.02,1.39,.52,1.46,1.01,.1,.64-.29,1.2-1.05,1.45h-6.85Z"/><path class="cls-1" d="M106.44,46.56s-.01,.05,0,.09h-8.95s0-.05-.01-.07c.16-.17,.37-.16,.56-.16h7.85c.19,0,.41-.02,.57,.15h-.01Z"/><path class="cls-1" d="M62.63,46.64s0-.05-.01-.07c.16-.17,.37-.16,.56-.16h5.77c.19,0,.41-.02,.57,.15,0,.02-.01,.05,0,.07h-6.89Z"/><path class="cls-1" d="M69.51,46.56h-6.9c-.67-.17-1.02-.67-.94-1.34,.07-.58,.57-1.01,1.22-1.01h5.95c1,0,1.78-.56,2.03-1.45,.38-1.28-.56-2.54-1.95-2.56-1.91-.02-3.82,0-5.73,0h-.35c-.66-.02-1.16-.51-1.19-1.14-.02-.67,.44-1.2,1.11-1.27h6.12c1.17,0,2.07-.88,2.07-2.01s-.9-1.98-2.04-1.98h-6.03c-.56,0-.95-.28-1.14-.78-.17-.46-.06-.97,.3-1.31,.24-.23,.54-.33,.88-.33,2.07,0,4.14-.06,6.21,.01,1.81,.06,3.18,1,3.88,2.68,.71,1.67,.44,3.26-.75,4.65-.21,.24-.21,.34,0,.57,1.18,1.35,1.44,2.92,.78,4.56-.63,1.57-1.83,2.48-3.53,2.7h.02Z"/><path class="cls-1" d="M106.44,46.56h-8.98c-.63-.18-.94-.57-.94-1.23v-12.7c0-.72,.54-1.27,1.22-1.25,.68,0,1.2,.55,1.2,1.28v11.18c0,.32,.1,.38,.39,.38h6.81c.64,0,1.13,.44,1.22,1.07,.09,.57-.3,1.1-.92,1.28Z"/><path class="cls-1" d="M85.37,31.38h3.3c.8,0,1.34,.49,1.34,1.2s-.52,1.2-1.34,1.2h-5.86c-1.18,0-2.03,.82-2.09,1.98-.04,.75-.54,1.25-1.23,1.23-.71-.02-1.19-.58-1.17-1.34,.04-2.1,1.63-3.92,3.72-4.22,1.19-.17,2.4-.01,3.35-.07h-.01Z"/><path class="cls-1" d="M78.34,41.6v1.23c-.12-.41-.12-.83,0-1.23Z"/></g></svg>