<?xml version="1.0" encoding="UTF-8"?><svg id="Capa_1" xmlns="http://www.w3.org/2000/svg" viewBox="0 0 110 78"><defs><style>.cls-1{fill:#72896a;}.cls-2{fill:#a3c69b;}</style></defs><path class="cls-2" d="M14,45.4c-.3,.83-.9,1.41-1.61,1.88-1.4,.92-2.96,1.14-4.59,1.05-1.05-.06-2.06-.28-3.01-.75-1.78-.88-2.84-2.36-3.46-4.19-.48-1.39-.67-2.83-.68-4.29-.02-3.52,0-7.03,0-10.55H9.39c.12,.15,.08,.32,.08,.49,0,3.66,0,7.31,0,10.97,0,1.04,.15,2.07,.64,3.02,.55,1.08,1.42,1.74,2.61,1.99,.22,.05,.45,.07,.67,.13,.11,.04,.24,.05,.36,.05,.12,0,.22,.04,.23,.19Z"/><path class="cls-2" d="M22.82,28.55s.02,.09,.02,.14c0,2.83,.04,5.67-.02,8.5-.08,4.06-3.23,7.48-7.26,7.99-.5,.06-1,.1-1.5,.05-.1-.11-.08-.25-.08-.38,0-4.26,0-8.52,0-12.78,0-1.05,.36-1.98,1.16-2.71,.54-.49,1.16-.77,1.88-.81,1.93,0,3.87,0,5.8,0Z"/><path class="cls-1" d="M108.03,42.91c-.1,.05-.08,.15-.09,.23-.27,1.53-1.22,2.54-2.61,3.07-2.63,1.01-5.31,1.03-7.92-.08-1.55-.66-2.48-1.86-2.71-3.56-.05-.4-.06-.41,.32-.46,.89-.12,1.79-.24,2.68-.36,.12-.02,.18,.01,.2,.14,.2,1.49,1.22,2.1,2.56,2.33,.9,.16,1.81,.17,2.71-.08,.28-.08,.53-.19,.78-.34,.57-.36,.78-.9,.74-1.55-.04-.59-.42-.92-.91-1.15-.86-.4-1.78-.58-2.7-.76-1.3-.26-2.62-.5-3.82-1.09-1.41-.69-2.17-1.82-2.24-3.41-.06-1.47,.52-2.61,1.73-3.44,.86-.59,1.83-.88,2.84-1.03,1.49-.22,2.97-.18,4.42,.23,2.06,.58,3.44,2.2,3.66,4.3,.01,.14-.04,.16-.15,.18-.94,.13-1.88,.26-2.82,.39-.18,.03-.18-.09-.19-.21-.13-1.13-.75-1.86-1.81-2.23-.33-.11-.67-.15-1.01-.18-.83-.07-1.64,.02-2.41,.38-.62,.29-.95,.77-.94,1.46,.01,.67,.4,1.09,.99,1.35,.98,.43,2.02,.6,3.05,.83,1.1,.24,2.21,.42,3.25,.88,1.31,.58,2.22,1.48,2.37,2.98,0,.03,.02,.05,.04,.08v1.11Z"/><path class="cls-1" d="M71.33,46.91c-1.12-.05-2.21-.26-3.22-.74-1.61-.77-2.6-2-2.74-3.83-.01-.16,.03-.19,.18-.21,.92-.12,1.84-.26,2.75-.39,.14-.02,.28-.06,.31,.17,.22,1.52,1.29,2.09,2.64,2.32,.91,.15,1.83,.13,2.72-.15,.24-.08,.47-.18,.69-.32,.53-.34,.74-.84,.73-1.45-.02-.61-.4-.97-.92-1.21-.87-.4-1.8-.58-2.73-.76-1.3-.26-2.6-.53-3.82-1.09-2.55-1.19-2.71-4.31-1.52-5.88,.57-.75,1.32-1.23,2.19-1.57,1.32-.51,2.69-.62,4.08-.55,.95,.05,1.89,.21,2.78,.61,1.45,.65,2.39,1.71,2.79,3.25,.06,.25,.11,.51,.13,.77,.01,.17-.06,.22-.19,.24-.76,.1-1.52,.2-2.28,.3-.13,.02-.27,.03-.4,.06-.24,.06-.32-.08-.33-.27-.07-1.21-1.05-2.05-2.21-2.25-.87-.15-1.72-.15-2.56,.13-.43,.14-.83,.34-1.09,.73-.52,.81-.23,1.78,.65,2.18,.75,.34,1.55,.53,2.35,.71,1.21,.27,2.44,.46,3.61,.88,.68,.24,1.31,.57,1.82,1.08,.8,.79,1.04,1.75,.97,2.85-.04,.74-.2,1.43-.6,2.05-.54,.85-1.33,1.39-2.25,1.76-1.04,.41-2.12,.59-3.23,.61-.43,.02-.87,.02-1.3,0Z"/><path class="cls-1" d="M81.43,31.56c.51,0,1.02,0,1.53,0,.18,0,.25,.05,.31,.22,1.12,3.42,2.28,6.82,3.3,10.28,.04,.12,.02,.33,.17,.34,.16,0,.13-.21,.17-.33,1.16-3.43,2.32-6.85,3.47-10.28,.06-.17,.13-.23,.31-.23,1,0,2,0,3,0,.22,0,.24,.06,.16,.25-1.86,4.79-3.7,9.59-5.56,14.38-.28,.71-.63,1.39-1.05,2.02-1.02,1.52-2.48,2.23-4.27,2.4-.85,.08-1.7,.02-2.55,0-.18,0-.2-.08-.2-.23,0-.73,0-1.47,0-2.2,0-.19,.06-.23,.24-.22,.5,.03,1,.03,1.5,0,.93-.06,1.7-.4,2.19-1.25,.22-.38,.4-.78,.6-1.17,.07-.14,0-.24-.04-.36-1.31-3.52-2.62-7.04-3.93-10.56-.34-.92-.68-1.85-1.03-2.77-.09-.22-.08-.31,.2-.3,.5,.02,1,0,1.5,0Z"/><path class="cls-1" d="M42.86,41.51c0-1.5-.01-2.99,0-4.49,.01-.87,.13-1.73,.49-2.54,.65-1.44,1.79-2.35,3.25-2.82,2.21-.71,4.43-.67,6.57,.27,1.73,.76,2.7,2.13,2.99,3.99,.08,.55,.11,1.11,.11,1.67,0,2.9,0,5.81,0,8.71,0,.24-.06,.31-.31,.3-.91-.01-1.82-.01-2.73,0-.24,0-.29-.07-.29-.29,0-2.84,0-5.67,0-8.51,0-.62-.01-1.23-.2-1.83-.31-1.01-.97-1.65-2.01-1.88-.74-.16-1.48-.17-2.22-.04-1.19,.2-2,1.02-2.24,2.25-.09,.46-.12,.93-.12,1.4,0,2.87,0,5.73,0,8.6,0,.24-.06,.31-.31,.3-.91-.02-1.82-.01-2.73,0-.22,0-.28-.06-.28-.28,0-1.6,0-3.21,0-4.81,0,0,0,0,0,0Z"/><path class="cls-1" d="M40.16,36.61c0,1.42,0,2.84,0,4.25,0,.95-.1,1.89-.49,2.78-.71,1.58-1.97,2.51-3.59,2.95-2.04,.56-4.1,.54-6.1-.18-1.93-.7-3.09-2.1-3.41-4.15-.08-.5-.11-1.01-.11-1.52,0-2.96,0-5.92,0-8.89,0-.24,.06-.31,.31-.31,.91,.02,1.82,.01,2.73,0,.24,0,.29,.08,.29,.3,0,2.83,0,5.65,0,8.48,0,.54,.01,1.07,.14,1.6,.29,1.22,1.04,1.96,2.28,2.17,.84,.15,1.68,.14,2.51-.05,1.17-.27,1.8-1.06,2.04-2.2,.1-.47,.12-.95,.12-1.43,0-2.85,0-5.71,0-8.56,0-.25,.06-.31,.31-.3,.91,.02,1.82,.01,2.73,0,.22,0,.28,.05,.28,.28,0,1.59,0,3.19,0,4.78h0Z"/><path class="cls-1" d="M59.45,39.08c0-2.4,0-4.81,0-7.21,0-.24,.05-.31,.3-.31,.9,.02,1.8,.01,2.7,0,.2,0,.29,.03,.29,.27,0,4.84,0,9.68,0,14.52,0,.2-.05,.26-.26,.26-.92-.01-1.84-.01-2.76,0-.23,0-.27-.07-.27-.28,0-2.41,0-4.83,0-7.24Z"/><path class="cls-2" d="M13.43,45.24c.21-.02,.42,.04,.63-.02,0,.06,0,.13-.06,.17-.14-.21-.4-.04-.57-.16Z"/></svg>