<svg id="Capa_1" data-name="Capa 1" xmlns="http://www.w3.org/2000/svg" viewBox="0 0 128 128"><defs><style>.cls-1{fill:#b9b8a3;}</style></defs><path class="cls-1" d="M125.44,82.1c3.23-10.73,2.27-21-4.59-30.08-5.94-7.9-14.09-12.37-24.2-13.92C97.83,36.91,98.79,36,99.73,35a167.69,167.69,0,0,0,13.68-16.54c2-2.63,1.89-3.08-1-4.8-3-1.82-6-3.75-8.88-5.79-2.34-1.64-2.29-1.75-2.9,1.15a148.15,148.15,0,0,1-6.58,21.2c-.29.77-.7,1.86-1.31,2.06-1,.36-1.1-1-1.55-1.63-4.62-6.33-10.06-11.52-17.79-13.93C59,12.21,46.06,15.21,34.72,25,27.63,31.05,23.44,39.14,20.2,47.79a92.2,92.2,0,0,0-5,23.92C14,84.1,10.47,95.69,1.44,104.89c-1.08,1.1-.74,1.5.32,2.27,5.07,3.73,11.08,5.23,16.93,7a165.11,165.11,0,0,0,39,7c8.4.43,16.75.26,24.75-2.88a13.36,13.36,0,0,0,6.31-4.51,3.89,3.89,0,0,0-.87-.3c-12-.62-19.35-14.56-13.48-24.16C78.16,83.12,86.28,80,92.83,83c7.51,3.51,11.21,13.88,7.62,21.44-.9,1.88-1.88,3.73-2.82,5.57a2.29,2.29,0,0,0,2.38.12,36.29,36.29,0,0,0,14.87-9.34A45.42,45.42,0,0,0,125.44,82.1ZM71,111.12a6.7,6.7,0,0,0,2.54,2.18,32.34,32.34,0,0,1-9.31,1.51,126.9,126.9,0,0,1-43.88-6.29c-2.63-.86-5.24-1.82-7.81-2.87-.93-.39-2.09-.93-1-2.43,5.89-8,8.26-17.42,10.38-26.91,1.47-6.6,1.64-13.39,3.4-20,2.8-10.47,7.1-20,15.7-27.07,9.76-8,24.68-10.44,36.19-3.12A29.62,29.62,0,0,1,87.35,36.93c1,1.89,1.79,3.67,0,5.73-1.23,1.43-1.53,3.58-3.52,4.87C81.74,40,78.31,33,71.09,29.47,64.41,26.2,57,26.7,49.84,28.4a68.13,68.13,0,0,1,11.72,2.67c9.5,3.27,15.57,9.45,17.89,19.51.85,3.66-1.49,5.24-3,7.4-.77,1.11-1.16-.49-1.22-1-.32-3.22-1.85-6-3.37-8.68C65.6,37,50.75,31.74,38.76,36.41A5.1,5.1,0,0,0,38,37c4.05.51,8,.27,11.69,1.33C59.11,41,65.77,46.71,69.19,56c.17.48.27,1,.48,1.45C71.65,61.89,72.15,66,67,69c-1.81-9.62-6.87-17.47-16.24-21.29-8.65-3.53-13.06-3.11-20-.2,3,.37,5.73.52,8.34,1.06a29.83,29.83,0,0,1,20.17,14c2.08,3.39,2.55,7.3,2.8,11.21A2.54,2.54,0,0,1,61,76c-1.44,1.13-2.93,2.2-4.66,3.49-1.61-9.61-6.54-16.36-15.44-19.74a15.91,15.91,0,0,0-13.61,1.14c1,.94,2,.61,2.92.57,9.29-.38,15.38,4.5,19.86,12,1.48,2.48,1.67,5.33,1.69,8.11,0,2.13-2.29,2.47-3.53,3.63s-2.09,2.16-2.86-.81C42.82,74.39,33,70.44,24.37,74c2.82.8,5.43,1.56,8.05,2.27a11.63,11.63,0,0,1,8.53,11,4.5,4.5,0,0,1-2.56,4.51,16.65,16.65,0,0,0-2,1.13c-1.73,1.28-2.59,1-3.32-1.17-1.71-5.13-6.52-7.11-11.46-4.57a10.21,10.21,0,0,1,5.73,2.81,10.89,10.89,0,0,1,1.52,1.68c2,3.28,1.52,4.75-2,6.26C23,99.46,19,101,15.12,103a30.1,30.1,0,0,0,3.8,0,45.45,45.45,0,0,0,12-2.88c2.54-1,8.17,1.88,8.89,6.33.22,1.41.26,2.85.39,4.3,3.4-2.38,3.55-7.7.39-11.16-.79-.86-2.89-1.59-2-2.61a6.13,6.13,0,0,1,4.89-2.24c6.3.29,9.79,4.36,12.66,9.27,1.65,2.82,1.8,6.07,2.57,9.2A14.58,14.58,0,0,0,60,103.14,17.35,17.35,0,0,0,51.39,91.2c-1.5-.84-1-1.36,0-2.08A10.5,10.5,0,0,1,66.48,92.4a3.65,3.65,0,0,1,.35,2.41C66.49,100.68,67.15,106.3,71,111.12Zm5-31.9c-2.33,2-4.55,3.79-5.87,6.41-.4.78-1.09.93-1.66.36-1.54-1.56-3.59-2.19-5.42-3.22-.86-.48-1.4-.88-.51-1.89C66.38,76.49,70.37,75.91,75.94,79.22ZM109,96.59a2.5,2.5,0,0,1-1.61,1,23,23,0,0,0-2.72-10.63A20.67,20.67,0,0,0,84.11,76.42c-1.73.21-3.14.21-4.62-1.13-1.69-1.54-4.07-2-6.3-2.46-1.25-.27-1.24-.52-.52-1.6,2.19-3.31,5.15-4,8.91-3.6,6.92.75,12.53,4,17.9,8.13a23.45,23.45,0,0,1,8.8,12.93A18.81,18.81,0,0,0,109,90.6c0,.14.23.23.59.57a16.47,16.47,0,0,0-1.1-12.78c-5.25-10.09-14-14.85-25-16.22-.65-.08-1.51.23-1.88-.44s.53-1.16.9-1.63C83.62,58.66,84.3,57,86.9,57c14,.39,24.25,7.83,29.49,21.24a7.36,7.36,0,0,0-.15-3.77c-1.72-8.58-5.35-15.88-13.82-19.66a29.22,29.22,0,0,0-11.31-2.44c-.64,0-1.49.21-1.82-.54s.19-1.36.61-1.85a17,17,0,0,0,2-2.9c.9-1.62,2.38-2,4.12-1.71,13.66,2.07,22.55,10.53,23.38,25C120,80.66,116.69,89.54,109,96.59Z"/></svg>