<?xml version="1.0" encoding="utf-8"?>
<!-- Generator: Adobe Illustrator 27.0.0, SVG Export Plug-In . SVG Version: 6.00 Build 0)  -->
<svg version="1.1" id="Capa_1" xmlns="http://www.w3.org/2000/svg" xmlns:xlink="http://www.w3.org/1999/xlink" x="0px" y="0px"
	 viewBox="0 0 24 24" style="enable-background:new 0 0 24 24;" xml:space="preserve">
<style type="text/css">
	.st0{fill:#72896A;}
</style>
<path class="st0" d="M12.8,12.2l-7.5,1.3c-0.2,0-0.3,0.2-0.4,0.3l-2.6,7c-0.2,0.6,0.4,1.2,1,0.9l18-9c0.4-0.2,0.5-0.6,0.3-1
	c-0.1-0.1-0.2-0.3-0.3-0.3l-18-9C2.7,2,2.1,2.6,2.3,3.3l2.6,7c0.1,0.2,0.2,0.3,0.4,0.3l7.5,1.3c0.1,0,0.2,0.1,0.2,0.2
	C13,12.1,12.9,12.2,12.8,12.2L12.8,12.2z"/>
</svg>
