<?xml version="1.0" encoding="utf-8"?>
<!-- Generator: Adobe Illustrator 27.0.0, SVG Export Plug-In . SVG Version: 6.00 Build 0)  -->
<svg version="1.1" id="Capa_1" xmlns="http://www.w3.org/2000/svg" xmlns:xlink="http://www.w3.org/1999/xlink" x="0px" y="0px"
	 viewBox="0 0 57 57" style="enable-background:new 0 0 57 57;" xml:space="preserve">
<style type="text/css">
	.st0{fill:#FFFFFF;}
	.st1{fill:none;stroke:#BBBBBB;}
	.st2{fill:#C1E1C1;}
</style>
<g>
	<path class="st0" d="M30.4,2.3L30.4,2.3c14.3,1.3,24.9,13.9,23.6,28.2l0,0c-1.3,14.3-13.9,24.9-28.2,23.6l0,0
		C11.6,52.8,1,40.2,2.3,25.9l0,0C3.5,11.6,16.1,1,30.4,2.3z"/>
	<path class="st1" d="M30.4,2.8L30.4,2.8c14,1.2,24.4,13.6,23.2,27.6l0,0c-1.2,14-13.6,24.4-27.6,23.2h0C11.9,52.3,1.5,40,2.8,25.9
		l0,0C4,11.9,16.4,1.5,30.4,2.8z"/>
	<g>
		<path class="st2" d="M45.6,34.4c-0.3-1.4-0.8-2.7-1.5-3.9c-1-2-2.4-3.8-4.1-5.2c-0.7-0.6-1.4-1.1-2.2-1.6c0,0,0,0,0,0
			c0.4-0.6,0.7-1.2,1.1-1.8l1-1.8l0.7-1.3c0.4-0.8,0.2-1.7-0.6-2.2c-0.3-0.2-0.6-0.3-1-0.2c-0.5,0.1-1,0.3-1.2,0.8l-0.7,1.3l-1,1.8
			c-0.4,0.6-0.7,1.2-1.1,1.8l-0.1,0.2c-0.1,0-0.1,0-0.2-0.1c-2-0.8-4.1-1.2-6.3-1.2c-0.1,0-0.1,0-0.2,0c-1.9,0-3.8,0.3-5.6,1
			c-0.2,0.1-0.4,0.1-0.6,0.2L22,22c-0.4-0.6-0.7-1.2-1.1-1.8c-0.6-1-1.2-2.1-1.8-3.1c-0.3-0.5-0.9-0.9-1.5-0.8
			c-0.2,0-0.5,0.1-0.7,0.2c-0.4,0.2-0.6,0.6-0.7,1c-0.1,0.4-0.1,0.9,0.2,1.2l0.7,1.3l1,1.8c0.4,0.6,0.7,1.2,1.1,1.8l0,0
			c-2,1.2-3.7,2.9-5.1,4.8c-0.5,0.7-0.9,1.4-1.3,2.1c-0.7,1.2-1.2,2.6-1.5,3.9c-0.3,1.2,0.7,2.3,1.9,2.3h30.4
			C45,36.7,45.9,35.6,45.6,34.4L45.6,34.4z"/>
		<path d="M21.3,31.6c0.7-1,0.5-2.2-0.3-2.8c-0.8-0.5-2-0.2-2.6,0.8c-0.7,1-0.5,2.2,0.3,2.8C19.5,33,20.6,32.6,21.3,31.6z
			 M35.5,31.6c-0.7-1-0.5-2.2,0.3-2.8c0.8-0.5,2-0.2,2.6,0.8c0.7,1,0.5,2.2-0.3,2.8C37.4,33,36.2,32.6,35.5,31.6z"/>
	</g>
</g>
</svg>
