<?xml version="1.0" encoding="UTF-8"?><svg id="Capa_1" xmlns="http://www.w3.org/2000/svg" viewBox="0 0 96 96"><defs><style>.cls-1{fill:none;stroke:#bbb;stroke-miterlimit:4;stroke-width:1px;}.cls-2{fill:#fdf8e6;}.cls-3{fill:#151515;}</style></defs><path class="cls-3" d="M30.31,17.5h0c16.74-9.66,38.15-3.93,47.81,12.81h0c9.66,16.74,3.93,38.15-12.81,47.81h0c-16.74,9.66-38.15,3.93-47.81-12.81h0c-9.66-16.74-3.93-38.15,12.81-47.81Z"/><path class="cls-1" d="M30.56,17.93h0c16.5-9.53,37.6-3.87,47.13,12.63h0c9.53,16.5,3.87,37.6-12.63,47.13h0c-16.5,9.53-37.6,3.87-47.13-12.63h0c-9.53-16.5-3.87-37.6,12.63-47.13Z"/><g><path class="cls-2" d="M54.79,27.67h.27c.21,2.64-.79,4.61-2.02,6.04-1.2,1.42-2.85,2.8-5.51,2.59-.18-2.6,.83-4.43,2.06-5.86,1.13-1.33,3.22-2.51,5.21-2.77Z"/><path class="cls-2" d="M62.85,55.16v.07c-.75,2.27-1.82,4.21-3.12,6.01-1.19,1.64-2.65,3.84-5.25,3.84-2.25,0-3.74-1.45-6.05-1.49-2.44-.04-3.78,1.21-6.01,1.52h-.76c-1.64-.24-2.96-1.53-3.92-2.7-2.84-3.45-5.03-7.91-5.44-13.61v-1.68c.17-4.08,2.16-7.4,4.79-9.01,1.39-.86,3.3-1.58,5.43-1.26,.91,.14,1.85,.45,2.66,.76,.77,.3,1.74,.83,2.66,.8,.62-.02,1.24-.34,1.87-.57,1.84-.66,3.63-1.42,6.01-1.07,2.85,.43,4.87,1.7,6.12,3.65-2.41,1.53-4.32,3.85-3.99,7.8,.29,3.59,2.37,5.69,4.98,6.92Z"/></g></svg>